<?xml version="1.0" encoding="UTF-8"?>
<svg id="Layer_2" data-name="Layer 2" xmlns="http://www.w3.org/2000/svg" xmlns:xlink="http://www.w3.org/1999/xlink" viewBox="0 0 66.94 72.41">
  <defs>
    <style>
      .cls-1 {
        fill: url(#linear-gradient);
      }

      .cls-1, .cls-2, .cls-3 {
        stroke-width: 0px;
      }

      .cls-2 {
        fill: #fff;
      }

      .cls-3 {
        fill: #ff5233;
      }
    </style>
    <linearGradient id="linear-gradient" x1="-.42" y1="13.2" x2="31.57" y2="31.67" gradientUnits="userSpaceOnUse">
      <stop offset=".2" stop-color="#fe5133"/>
      <stop offset=".96" stop-color="#f53b35"/>
    </linearGradient>
  </defs>
  <g id="Layer_1-2" data-name="Layer 1">
    <path class="cls-1" d="m33.47,0v21.5c0,8.99-4.64,16.91-11.59,21.5-.86.41-1.69.92-2.51,1.45h-.03c-3.25,2.13-5.97,5-7.95,8.34-1.03-1.77-2.01-3.67-2.9-5.62-1.51-3.25-2.84-6.8-4.02-10.64C2.16,28.71.62,20.76,0,12.71c-.03-.35.24-.71.59-.77,6-1.09,16.03-3.46,25.81-8.16,2.28-1.09,4.52-2.31,6.68-3.67.12-.09.24-.12.38-.12Z"/>
    <path class="cls-3" d="m55.56,52.78c-5.53,9.61-12.83,16.14-21.79,19.57-.09.03-.21.06-.3.06s-.21-.03-.3-.06c-8.96-3.43-16.29-9.99-21.79-19.57,1.98-3.34,4.7-6.21,7.95-8.31h.03c.83-.56,1.66-1.06,2.51-1.48,3.46-1.77,7.42-2.78,11.59-2.78s8.07,1.01,11.53,2.75c.83.53,1.69,1.03,2.54,1.48,3.28,2.1,6,5,8.01,8.34Z"/>
    <path class="cls-2" d="m44.99,42.96c-3.46-1.74-7.39-2.75-11.53-2.75s-8.13,1.01-11.59,2.78c6.95-4.58,11.59-12.51,11.59-21.5,0,8.96,4.61,16.85,11.53,21.47Z"/>
    <path class="cls-3" d="m66.94,12.71c-.65,8.01-2.16,15.94-4.44,23.65-1.18,3.9-2.51,7.48-4.05,10.79-.89,1.95-1.86,3.84-2.9,5.62-2.01-3.34-4.73-6.24-8.01-8.34-.86-.44-1.72-.95-2.54-1.48-6.92-4.61-11.53-12.51-11.53-21.47V0c.15,0,.27,0,.38.12,2.16,1.36,4.41,2.57,6.68,3.67,9.76,4.7,19.78,7.07,25.78,8.16.38.06.65.41.62.77Z"/>
  </g>
</svg>