<svg width="582" height="454" viewBox="0 0 582 454" fill="none" xmlns="http://www.w3.org/2000/svg">
<path d="M581.249 299.747L560.226 447.359H25.6713L9.88439 334.751C8.12866 322.135 15.1037 309.908 26.8745 305.013L74.3177 285.325V238.141C74.3177 224.24 84.4953 212.453 98.2513 210.453L109.469 208.811L128.313 145.093C131.825 133.191 142.751 125.047 155.141 125.047H347.887C355.219 125.047 361.934 127.875 366.942 132.525C371.95 137.192 375.251 143.679 375.787 150.995L467.567 160.685C481.193 162.132 491.761 173.204 492.574 186.879L496.281 250.548L561.137 268.871C574.631 272.675 583.215 285.877 581.249 299.747Z" fill="#DDECF1"/>
<path d="M57.7199 330.189L74.4063 447.359H498.714L511.246 357.976C512.641 347.96 507.103 338.256 497.759 334.372L460.101 318.742V281.291C460.101 270.257 452.023 260.9 441.105 259.313L432.199 258.009L417.242 207.432C414.454 197.985 405.782 191.52 395.947 191.52H242.953C237.133 191.52 231.803 193.765 227.827 197.456C223.853 201.16 221.233 206.309 220.807 212.117L147.955 219.808C137.141 220.957 128.751 229.745 128.106 240.6L125.163 291.137L73.6839 305.681C62.9719 308.702 56.1579 319.181 57.7199 330.189Z" fill="#CFDCE4"/>
<path d="M407.77 403.699C407.77 391.069 398.523 380.361 386.029 378.544L375.837 377.052L358.717 319.167C355.527 308.356 345.601 300.956 334.346 300.956H159.245C152.583 300.956 146.482 303.525 141.934 307.75C137.385 311.989 134.386 317.883 133.898 324.529L58.088 332.533L74.4417 447.359H409.691L407.77 446.561V403.699Z" fill="#BDD0D8"/>
<path d="M120.649 147.196H250.722V25.7914H120.649V147.196Z" fill="#192941"/>
<path d="M120.649 38.6306H250.722V25.791H120.649V38.6306Z" fill="#2C4666"/>
<path d="M222.605 32.356C222.605 33.656 221.551 34.7107 220.253 34.7107C218.951 34.7107 217.898 33.656 217.898 32.356C217.898 31.056 218.951 30.0027 220.253 30.0027C221.551 30.0027 222.605 31.056 222.605 32.356Z" fill="#5C60B6"/>
<path d="M232.433 32.356C232.433 33.656 231.379 34.7107 230.079 34.7107C228.779 34.7107 227.726 33.656 227.726 32.356C227.726 31.056 228.779 30.0027 230.079 30.0027C231.379 30.0027 232.433 31.056 232.433 32.356Z" fill="#F8CF3E"/>
<path d="M241.558 32.604C241.558 33.904 240.505 34.9573 239.205 34.9573C237.905 34.9573 236.851 33.904 236.851 32.604C236.851 31.304 237.905 30.2506 239.205 30.2506C240.505 30.2506 241.558 31.304 241.558 32.604Z" fill="#F46B6F"/>
<path d="M162.201 52.1147H143.778V50.5667H162.201V52.1147Z" fill="#F46B6F"/>
<path d="M183.823 52.1147H165.401V50.5667H183.823V52.1147Z" fill="#F8CF3E"/>
<path d="M178.043 60.4561H149.477V58.9081H178.043V60.4561Z" fill="#5C60B6"/>
<path d="M197.289 60.4561H182.767V58.9081H197.289V60.4561Z" fill="#F46B6F"/>
<path d="M171.933 68.7974H159.386V67.248H171.933V68.7974Z" fill="#F8CF3E"/>
<path d="M220.809 68.7974H179.185V67.248H220.809V68.7974Z" fill="#F8CF3E"/>
<path d="M216.701 77.1372H169.131V75.5892H216.701V77.1372Z" fill="#5C60B6"/>
<path d="M171.878 85.4785H157.238V83.9305H171.878V85.4785Z" fill="#F46B6F"/>
<path d="M192.782 85.4785H178.142V83.9305H192.782V85.4785Z" fill="#5C60B6"/>
<path d="M165.077 127.205H143.778V128.753H165.077V127.205Z" fill="#F46B6F"/>
<path d="M193.833 127.205H172.535V128.753H193.833V127.205Z" fill="#F8CF3E"/>
<path d="M221.815 127.205H200.518V128.753H221.815V127.205Z" fill="#F46B6F"/>
<path d="M191.099 118.864H149.477V120.412H191.099V118.864Z" fill="#5C60B6"/>
<path d="M239.211 118.864H197.59V120.412H239.211V118.864Z" fill="#F46B6F"/>
<path d="M200.69 110.523H159.386V112.071H200.69V110.523Z" fill="#F46B6F"/>
<path d="M215.787 110.523H204.291V112.071H215.787V110.523Z" fill="#F8CF3E"/>
<path d="M172.238 102.181H156.689V103.729H172.238V102.181Z" fill="#F8CF3E"/>
<path d="M196.045 102.181H180.495V103.729H196.045V102.181Z" fill="#5C60B6"/>
<path d="M221.594 102.181H206.045V103.729H221.594V102.181Z" fill="#F46B6F"/>
<path d="M196.517 93.8398H174.713V95.3892H196.517V93.8398Z" fill="#F8CF3E"/>
<path d="M166.487 93.8398H144.685V95.3892H166.487V93.8398Z" fill="#5C60B6"/>
<path d="M133.702 51.0613H131.721V49.0786H133.702V51.0613Z" fill="#FBFDFE"/>
<path d="M133.702 61.1666H131.721V57.1253H133.702V61.1666ZM133.702 71.2719H131.721V67.2306H133.702V71.2719ZM133.702 81.3786H131.721V77.3359H133.702V81.3786ZM133.702 91.4839H131.721V87.4413H133.702V91.4839ZM133.702 101.589H131.721V97.5479H133.702V101.589ZM133.702 111.696H131.721V107.655H133.702V111.696ZM133.702 121.801H131.721V117.76H133.702V121.801Z" fill="#FBFDFE"/>
<path d="M133.702 129.848H131.721V127.865H133.702V129.848Z" fill="#FBFDFE"/>
<path d="M385.815 66.02H278.709V2.91089e-05H385.815V66.02Z" fill="#F46B6F"/>
<path d="M320.307 26.5532L307.563 31.9932L320.307 37.3518L318.639 41.2012L303.357 34.3745V29.6505L318.639 22.7825L320.307 26.5532Z" fill="#FBFDFE"/>
<path d="M339.087 13.9705L329.838 49.4985L325.431 48.4665L334.721 12.9785L339.087 13.9705Z" fill="#FBFDFE"/>
<path d="M361.202 29.6505V34.3745L345.919 41.2012L344.253 37.3518L356.955 31.9932L344.253 26.5532L345.919 22.7825L361.202 29.6505Z" fill="#FBFDFE"/>
<path d="M443.142 171.361H382.138V127.9H443.142V171.361Z" fill="#5C60B6"/>
<path d="M407.655 137.283C405.694 137.283 405.038 137.812 405.038 139.276V145.817C405.038 148.372 403.979 149.151 402.203 149.649C403.979 150.116 405.038 150.895 405.038 153.417V159.959C405.038 161.423 405.725 161.952 407.655 161.952V164.819C402.702 164.819 401.301 163.229 401.301 159.928V153.729C401.301 151.953 400.834 151.268 399.214 151.268V147.997C400.834 147.997 401.301 147.281 401.301 145.505V139.307C401.301 135.975 402.702 134.417 407.655 134.417V137.283Z" fill="#F4F6F5"/>
<path d="M423.978 139.307V145.505C423.978 147.281 424.445 147.997 426.095 147.997V151.268C424.445 151.268 423.978 151.953 423.978 153.729V159.928C423.978 163.229 422.577 164.819 417.625 164.819V161.952C419.555 161.952 420.241 161.423 420.241 159.959V153.417C420.241 150.895 421.299 150.116 423.075 149.649C421.299 149.151 420.241 148.372 420.241 145.817V139.276C420.241 137.812 419.587 137.283 417.625 137.283V134.417C422.577 134.417 423.978 135.975 423.978 139.307Z" fill="#F4F6F5"/>
<path d="M147.691 55.2439H79.2516V9.46786H147.691V55.2439Z" fill="#F8CF3E"/>
<path d="M116.319 35.2092C113.222 38.3052 108.183 38.3052 105.086 35.2078C101.989 32.1105 101.989 27.0732 105.086 23.9758C108.183 20.8785 113.222 20.8785 116.319 23.9758C119.417 27.0732 119.417 32.1118 116.319 35.2092ZM101.902 22.6078C98.634 26.6985 98.6847 32.6732 102.014 36.7132C105.797 41.3025 112.277 42.0425 116.933 38.9385L124.117 46.1211C124.419 46.4238 124.91 46.4238 125.214 46.1211L127.231 44.1025C127.535 43.7998 127.535 43.3078 127.231 43.0052L120.049 35.8225C122.958 31.4598 122.491 25.4945 118.646 21.6492C113.966 16.9692 106.153 17.2892 101.902 22.6078Z" fill="#FBFDFE"/>
<mask id="mask0_22_540" style="mask-type:luminance" maskUnits="userSpaceOnUse" x="313" y="132" width="34" height="37">
<path d="M346.774 150.863C346.626 152.375 344.559 168.161 328.326 168.161C311.285 168.161 314.139 151.288 314.139 151.288L314.118 151.183C315.779 150.841 317.569 150.713 319.465 150.927V142.939L338.809 132.116H339.511V150.756C339.511 150.756 342.578 150.393 346.774 150.863Z" fill="white"/>
</mask>
<g mask="url(#mask0_22_540)">
<path d="M346.774 150.863C346.626 152.375 344.559 168.161 328.326 168.161C311.285 168.161 314.139 151.288 314.139 151.288L314.118 151.183C315.779 150.841 317.569 150.713 319.465 150.927V142.939L338.809 132.116H339.511V150.756C339.511 150.756 342.578 150.393 346.774 150.863Z" fill="url(#paint0_radial_22_540)"/>
</g>
<mask id="mask1_22_540" style="mask-type:luminance" maskUnits="userSpaceOnUse" x="296" y="89" width="48" height="61">
<path d="M337.379 96.456C340.123 99.2374 342.197 102.836 343.194 107.235C345.053 115.429 343.305 124.1 340.926 131.997C340.521 133.349 340.058 134.712 339.223 135.849C338.629 136.66 337.862 137.328 337.102 137.989C333.662 140.985 330.222 143.983 326.79 146.988C324.462 149.024 310.138 150.721 307.403 148.768C296.869 141.235 294.841 119.411 296.949 108.252C300.447 89.7427 324.238 83.1254 337.379 96.456Z" fill="white"/>
</mask>
<g mask="url(#mask1_22_540)">
<path d="M337.379 96.456C340.123 99.2374 342.197 102.836 343.194 107.235C345.053 115.429 343.305 124.1 340.926 131.997C340.521 133.349 340.058 134.712 339.223 135.849C338.629 136.66 337.862 137.328 337.102 137.989C333.662 140.985 330.222 143.983 326.79 146.988C324.462 149.024 310.138 150.721 307.403 148.768C296.869 141.235 294.841 119.411 296.949 108.252C300.447 89.7427 324.238 83.1254 337.379 96.456Z" fill="url(#paint1_radial_22_540)"/>
</g>
<path d="M331.463 120.143C331.603 118.361 333.435 116.411 335.274 117.567C337.178 118.764 336.73 121.928 335.941 123.668C335.322 125.035 333.254 126.529 331.851 125.26C330.678 124.195 332.502 122.94 332.562 121.968C332.617 121.093 330.867 120.467 331.583 119.531" fill="#F7A388"/>
<path d="M331.801 128.381C333.721 128.957 336.974 127.493 337.797 124.819C338.619 122.144 338.531 119.091 338.531 119.091C338.531 119.091 339.498 121.512 339.001 125.408C338.503 129.303 337.139 133.013 334.082 133.063C331.025 133.111 331.801 128.381 331.801 128.381Z" fill="#F7A388"/>
<path d="M329.445 125.609L329.23 125.673C328.041 125.84 327.566 124.401 327.39 123.501C326.978 121.399 327.042 119.271 326.97 117.144C326.953 116.611 326.994 115.945 326.775 115.444C326.107 113.915 324.327 112.921 323.785 111.341C323.153 109.504 324.937 107.671 324.229 105.66C323.146 102.579 319.189 101.871 316.327 101.904C312.034 101.955 307.847 102.751 303.61 103.408C299.137 104.103 293.419 104.761 289.478 101.932C284.726 98.5227 282.742 89.6361 286.287 84.7721C288.219 82.1187 291.885 80.7067 295.095 80.6334C298.499 80.5547 301.375 82.5841 304.498 83.6054C306.985 84.4187 309.39 82.0401 311.714 81.5761C314.637 80.9921 315.877 84.1814 318.462 84.2681C320.973 84.3534 323.435 82.3921 325.877 81.9468C330.745 81.0574 330.458 85.9468 333.723 87.6161C335.754 88.6548 338.375 88.0254 340.429 89.0801C341.989 89.8814 342.207 91.2894 342.547 92.8841C342.842 94.2641 342.858 95.8561 343.313 97.1667C343.721 98.3454 344.71 99.0894 345.482 100.011C346.325 101.017 346.863 102.191 347.29 103.452C348.238 106.249 348.449 109.267 348.19 112.195C347.757 117.109 346.174 121.948 344.533 126.577C343.467 129.58 343.071 132.708 341.433 135.551C340.993 136.315 339.038 138.547 338.311 136.884C338.155 136.528 338.179 136.123 338.206 135.735C338.423 132.637 341.306 112.685 333.747 115.081C332.161 115.585 331.097 116.905 330.505 118.411C329.798 120.213 329.749 122.028 329.838 123.932C329.851 124.204 329.858 124.477 329.847 124.749C329.834 125.101 329.746 125.459 329.445 125.609Z" fill="#38397C"/>
<path d="M319.465 149.099C328.059 147.717 333.73 140.928 333.73 140.928C333.73 140.928 331.413 152.369 318.949 152.975L319.465 149.099Z" fill="#F7A388"/>
<path d="M333.573 305.06H345.874V423.095C345.874 424.291 344.903 425.263 343.706 425.263H335.741C334.542 425.263 333.573 424.291 333.573 423.095V305.06Z" fill="#16202D"/>
<path d="M305.895 306.748H373.551V308.595C373.551 313.244 369.782 317.013 365.133 317.013H314.314C309.665 317.013 305.895 313.244 305.895 308.595V306.748Z" fill="#2F415B"/>
<path d="M333.573 411.268H345.874V438.619C345.874 439.816 344.903 440.786 343.706 440.786H335.741C334.542 440.786 333.573 439.816 333.573 438.619V411.268Z" fill="#16202D"/>
<path d="M275.883 433.586C275.883 437.563 279.107 440.786 283.085 440.786C287.059 440.786 290.283 437.563 290.283 433.586C290.283 429.609 287.059 426.387 283.085 426.387C279.107 426.387 275.883 429.609 275.883 433.586Z" fill="#16202D"/>
<path d="M389.162 433.586C389.162 437.563 392.386 440.786 396.363 440.786C400.339 440.786 403.563 437.563 403.563 433.586C403.563 429.609 400.339 426.387 396.363 426.387C392.386 426.387 389.162 429.609 389.162 433.586Z" fill="#16202D"/>
<path d="M327.349 423.727H352.098V402.1H327.349V423.727Z" fill="#2F415B"/>
<path d="M275.883 428.816H403.563V426.307C403.563 422.071 400.13 418.639 395.894 418.639H283.551C279.317 418.639 275.883 422.071 275.883 426.307V428.816Z" fill="#F8CF3E"/>
<path d="M339.723 400.169H335.457V319.439H339.723V400.169Z" fill="#2F415B"/>
<path d="M388.055 219.504C385.103 219.411 382.703 221.855 382.874 224.803C383.718 239.456 380.613 275.203 366.965 287.399C350.277 302.312 302.979 300.28 302.979 300.28C302.979 300.28 295.167 309.867 310.79 311.996C326.413 314.127 370.438 312.708 381.09 302.767C391.399 293.143 397.521 267.931 392.907 224.048C392.643 221.532 390.586 219.583 388.055 219.504Z" fill="#F8CF3E"/>
<mask id="mask2_22_540" style="mask-type:luminance" maskUnits="userSpaceOnUse" x="282" y="400" width="24" height="21">
<path d="M299.439 400.169L305.063 412.995L287.83 420.557L282.185 407.691L299.439 400.169Z" fill="white"/>
</mask>
<g mask="url(#mask2_22_540)">
<path d="M299.439 400.169L305.063 412.995L287.83 420.557L282.185 407.691L299.439 400.169Z" fill="url(#paint2_radial_22_540)"/>
</g>
<path d="M380.71 257.632C379.646 259.764 303.073 257.675 295.839 258.335C295.839 258.335 248.974 280.704 242.242 301.644C241.559 303.753 241.369 306.544 241.582 309.868C243.455 339.351 277.03 409.948 277.03 409.948L282.185 407.691L299.439 400.169L301.89 399.105C301.89 399.105 275.261 319.752 280.587 315.492C285.913 311.231 346.263 300.58 367.203 294.913C388.166 289.224 380.71 257.632 380.71 257.632Z" fill="#504B90"/>
<mask id="mask3_22_540" style="mask-type:luminance" maskUnits="userSpaceOnUse" x="214" y="403" width="22" height="20">
<path d="M233.738 403.469L235.085 422.736H216.273L214.926 403.426L233.738 403.469Z" fill="white"/>
</mask>
<g mask="url(#mask3_22_540)">
<path d="M233.738 403.469L235.085 422.736H216.273L214.926 403.426L233.738 403.469Z" fill="url(#paint3_radial_22_540)"/>
</g>
<path d="M295.457 257.675L294.774 257.973C294.774 257.973 216.315 268.988 203.535 290.993C195.226 305.308 211.307 409.912 211.307 409.912L239.065 409.976C239.065 409.976 234.914 322.84 236.298 317.984C237.854 312.444 240.517 310.441 241.582 309.868C241.369 306.544 241.559 303.753 242.242 301.644C248.974 280.704 295.839 258.335 295.839 258.335C295.691 258.229 295.562 257.995 295.457 257.675Z" fill="#38397C"/>
<path d="M371.238 185.181L365.977 185.905C365.977 185.905 364.698 200.093 361.566 214.281L296.018 239.163L295.122 243.913C294.846 243.892 294.569 243.871 294.313 243.849C294.334 244.829 294.334 245.788 294.377 246.683C294.526 252.159 294.887 256.099 295.463 257.675C295.57 257.995 295.698 258.229 295.847 258.335C297.627 259.787 320.811 256.973 345.874 266.176C367.611 274.159 379.795 282.876 380.358 281.705C387.19 267.503 374.753 211.768 371.238 185.181Z" fill="#F46B6F"/>
<path d="M364.399 217.689C362.653 226.083 358.137 242.784 349.274 245.021C337.706 247.961 315.339 247.812 294.377 246.683C294.334 245.788 294.334 244.829 294.313 243.849C294.569 243.871 294.846 243.892 295.122 243.913L296.018 239.163L361.566 214.281C364.698 200.093 365.977 185.905 365.977 185.905C365.977 185.905 365.977 185.991 365.997 186.14C366.125 188.335 367.019 205.292 364.399 217.689Z" fill="#F14B53"/>
<path d="M298.695 164.241C297.523 166.371 295.839 189.165 294.925 211.789L281.525 199.284C287.211 188.271 298.695 164.241 298.695 164.241Z" fill="#F14B53"/>
<path d="M290.663 228.32C279.351 230.279 268.955 231.963 268.955 231.963L268.934 232.516C256.345 222.461 237.193 193.98 237.193 193.98C237.193 193.98 242.923 187.099 244.351 185.288C244.563 185.011 275.794 206.505 277.391 206.313C277.797 206.272 279.394 203.46 281.525 199.284L294.925 211.789C294.71 217.179 294.539 222.547 294.433 227.637C293.177 227.872 291.921 228.085 290.663 228.32Z" fill="#F7A388"/>
<mask id="mask4_22_540" style="mask-type:luminance" maskUnits="userSpaceOnUse" x="234" y="227" width="35" height="15">
<path d="M268.955 231.963L268.678 241.293H234.593C234.593 241.293 237.981 227.979 247.205 227.979C256.429 227.979 259.986 232.857 259.986 232.857L268.955 231.963Z" fill="white"/>
</mask>
<g mask="url(#mask4_22_540)">
<path d="M268.955 231.963L268.678 241.293H234.593C234.593 241.293 237.981 227.979 247.205 227.979C256.429 227.979 259.986 232.857 259.986 232.857L268.955 231.963Z" fill="url(#paint4_radial_22_540)"/>
</g>
<path d="M244.094 185.075L244.351 185.288C242.923 187.099 237.193 193.98 237.193 193.98L233.635 191.467C233.635 191.467 229.715 193.852 225.157 191.359C220.406 188.781 223.346 182.627 223.59 181.897C222.669 182.157 216.977 186.757 216.082 186.268C215.187 185.777 214.527 184.159 220.895 177.875C227.245 171.591 235.893 179.664 236.149 179.664L244.094 185.075Z" fill="#F7A388"/>
<path d="M225.898 190.291C225.898 190.291 224.525 192.861 226.966 193.98C229.407 195.097 234.157 195.904 236.198 195.708C238.238 195.511 239.861 192.656 239.861 192.656L233.681 186.857H228.741L225.898 190.291Z" fill="#F7A388"/>
<path d="M225.533 191.553C225.898 190.291 229.407 190.964 231.582 191.016C233.185 191.053 234.062 190.633 234.557 189.412C235.053 188.192 232.726 186.247 232.269 186.857C231.811 187.467 233.107 188.327 233.146 189.136C233.185 189.947 230.858 190.215 229.065 190.215C227.271 190.215 224.178 190.681 224.178 190.681L225.533 191.553Z" fill="#E9896F"/>
<mask id="mask5_22_540" style="mask-type:luminance" maskUnits="userSpaceOnUse" x="268" y="214" width="91" height="32">
<path d="M358.235 226.381L324.854 214.557C322.425 219.096 319.826 222.504 317.25 223.187C313.351 224.208 303.934 225.976 294.433 227.637C293.177 227.872 291.921 228.085 290.663 228.32C279.351 230.279 268.955 231.963 268.955 231.963L268.934 232.516V232.879L268.678 241.293V243.429C268.678 243.429 280.011 242.848 294.306 243.849C314.31 245.276 340.107 246.129 348.649 242.104C352.654 240.207 355.85 233.987 358.365 226.317L358.235 226.381Z" fill="white"/>
</mask>
<g mask="url(#mask5_22_540)">
<path d="M358.235 226.381L324.854 214.557C322.425 219.096 319.826 222.504 317.25 223.187C313.351 224.208 303.934 225.976 294.433 227.637C293.177 227.872 291.921 228.085 290.663 228.32C279.351 230.279 268.955 231.963 268.955 231.963L268.934 232.516V232.879L268.678 241.293V243.429C268.678 243.429 280.011 242.848 294.306 243.849C314.31 245.276 340.107 246.129 348.649 242.104C352.654 240.207 355.85 233.987 358.365 226.317L358.235 226.381Z" fill="url(#paint5_radial_22_540)"/>
</g>
<path d="M324.854 214.557L358.235 226.381L356.725 230.841L323.686 216.669L324.854 214.557Z" fill="#F7A388"/>
<path d="M324.854 214.557C322.425 219.096 319.826 222.504 317.25 223.187C313.351 224.208 303.934 225.976 294.433 227.637C294.539 222.547 294.71 217.179 294.923 211.789C295.839 189.165 297.523 166.371 298.695 164.241C300.611 160.683 305.853 152.951 314.118 151.183L314.139 151.288C314.139 151.288 311.285 168.161 328.326 168.161C344.559 168.161 346.626 152.375 346.774 150.863C355.126 151.8 367.929 155.975 369.697 172.761C370.059 176.085 370.57 180.345 371.23 185.181L365.969 185.905C365.969 185.905 363.838 209.552 358.365 226.317L358.235 226.381L324.854 214.557Z" fill="#F46B6F"/>
<path d="M328.019 212.785L324.509 211.481L337.838 179.215L328.019 212.785Z" fill="#F7978B"/>
<path d="M346.774 150.863H339.511C339.511 150.863 329.173 162.213 322.529 162.213C315.882 162.213 319.465 150.927 319.465 150.927H316.222C306.91 150.927 299.073 157.92 298.018 167.173C297.898 168.233 297.787 169.239 297.694 170.148C296.982 177.015 324.799 182.012 324.799 182.012L339.122 181.211L347.819 164.241L349.553 157.292L346.774 150.863Z" fill="#F46B6F"/>
<path d="M259.118 435.319C259.765 438.788 262.171 441.256 265.642 440.608L311.91 431.979C313.081 431.76 313.851 430.635 313.634 429.464L312.869 425.359C312.869 425.359 264.206 433.875 259.094 435.292L259.118 435.319Z" fill="#F4F6F5"/>
<path d="M272.883 423.668C273.366 423.249 273.83 422.833 274.313 422.416C275.241 421.585 276.154 420.776 277.034 419.993C277.497 419.579 277.962 419.163 278.391 418.772C279.237 418.016 280.033 417.307 280.746 416.669C281.258 416.208 281.738 415.771 282.169 415.38C282.959 414.671 283.605 414.093 284.058 413.687C284.45 413.336 285.033 413.32 285.434 413.659C287.337 415.257 293.483 418.913 304.619 412.024C305.146 411.697 305.847 411.868 306.134 412.419L312.869 425.359C312.869 425.359 264.206 433.874 259.094 435.292C260.775 434.244 266.986 428.869 272.883 423.668Z" fill="#38397C"/>
<path d="M186.25 434.864C186.335 438.393 188.317 441.214 191.847 441.125L238.899 439.977C240.09 439.948 241.031 438.96 241.002 437.771L240.899 433.596C240.899 433.596 191.503 434.249 186.231 434.835L186.25 434.864Z" fill="#F4F6F5"/>
<path d="M201.695 425.556C202.239 425.219 202.762 424.884 203.306 424.548C204.355 423.875 205.385 423.221 206.377 422.589C206.902 422.253 207.426 421.917 207.914 421.601C208.869 420.988 209.766 420.415 210.573 419.9C211.153 419.524 211.695 419.168 212.182 418.853C213.075 418.279 213.806 417.811 214.317 417.483C214.759 417.199 215.338 417.275 215.682 417.673C217.305 419.555 222.791 424.144 234.881 419.116C235.454 418.879 236.118 419.159 236.313 419.748L240.899 433.596C240.899 433.596 191.503 434.249 186.231 434.835C188.057 434.067 195.045 429.751 201.695 425.556Z" fill="#38397C"/>
<path d="M152.779 243.429L127.65 176.411H199.19L224.317 243.429H152.779Z" fill="#A9B4B8"/>
<path d="M228.741 243.429H224.317L199.19 176.411L203.205 176.589L226.447 237.251L228.741 243.429Z" fill="#7F939F"/>
<path d="M227.353 243.429H274.623L274.494 239.204C274.494 239.204 227.174 239.204 226.385 239.204" fill="#7F939F"/>
<path d="M428.743 443.188H417.362V256.211H428.743V443.188Z" fill="#7F939F"/>
<path d="M366.965 443.188H355.583V256.211H366.965V443.188Z" fill="#A9B4B8"/>
<path d="M169.045 443.188H157.665V256.211H169.045V443.188Z" fill="#7F939F"/>
<path d="M107.269 443.188H95.8873V256.211H107.269V443.188Z" fill="#A9B4B8"/>
<path d="M440.133 256.92H84.9844C81.9292 256.92 79.4526 254.443 79.4526 251.388V248.96C79.4526 245.905 81.9292 243.429 84.9844 243.429H440.133C443.187 243.429 445.663 245.905 445.663 248.96V251.388C445.663 254.443 443.187 256.92 440.133 256.92Z" fill="#202450"/>
<path d="M139.595 183.455L140.819 186.717H155.07L153.846 183.455H139.595Z" fill="#7F939F"/>
<path d="M281.525 199.284L280.501 201.26L294.925 216.165V211.789L281.525 199.284Z" fill="#E9896F"/>
<path d="M575.887 453.935H0V440.784H575.887V453.935Z" fill="#A4B7C7"/>
<mask id="mask6_22_540" style="mask-type:luminance" maskUnits="userSpaceOnUse" x="454" y="291" width="36" height="86">
<path d="M484.585 343.253C482.298 354.353 482.986 373.261 468.302 376.256C464.347 377.061 460.527 374.321 458.229 371.18C455.221 367.069 454.501 358.369 454.553 353.392C454.594 349.448 455.939 345.051 456.371 341.071C456.841 336.773 457.221 332.467 457.722 328.172C459.529 312.695 467.614 299.723 481.29 291.996C482.349 297.077 484.761 301.377 486.889 306.256C487.859 308.48 488.734 310.825 489.366 313.156C490.483 317.283 489.131 321.453 488.127 325.407C486.643 331.251 485.803 337.341 484.585 343.253Z" fill="white"/>
</mask>
<g mask="url(#mask6_22_540)">
<path d="M484.585 343.253C482.298 354.353 482.986 373.261 468.302 376.256C464.347 377.061 460.527 374.321 458.229 371.18C455.221 367.069 454.501 358.369 454.553 353.392C454.594 349.448 455.939 345.051 456.371 341.071C456.841 336.773 457.221 332.467 457.722 328.172C459.529 312.695 467.614 299.723 481.29 291.996C482.349 297.077 484.761 301.377 486.889 306.256C487.859 308.48 488.734 310.825 489.366 313.156C490.483 317.283 489.131 321.453 488.127 325.407C486.643 331.251 485.803 337.341 484.585 343.253Z" fill="url(#paint6_linear_22_540)"/>
</g>
<path d="M465.815 376.629C465.921 375.699 466.035 374.768 466.158 373.837C467.913 373.832 469.739 372.835 471.211 372.072C473.766 370.748 475.838 368.849 477.845 366.82L477.657 366.632C475.655 368.313 473.581 369.941 471.199 371.052C469.87 371.671 467.929 372.683 466.291 372.88C466.446 371.768 466.617 370.66 466.801 369.552C468.627 369.328 470.302 368.128 471.849 367.211C474.478 365.651 476.739 363.632 479.083 361.687L479.05 361.645C475.465 364.249 471.47 367.956 466.933 368.768C467.174 367.381 467.427 365.997 467.719 364.624L467.765 364.409C473.015 363.081 476.566 358.964 480.586 355.636L480.513 355.524C476.554 358.599 472.834 362.105 467.941 363.599C468.366 361.632 468.807 359.672 469.251 357.716C474.001 355.963 477.794 353.18 481.114 349.304L481.018 349.211C477.582 352.787 473.798 354.84 469.441 356.876C469.879 354.939 470.315 353 470.729 351.056C472.783 350.047 474.945 349.432 476.842 348.103C478.714 346.792 480.394 345.229 481.599 343.279L481.441 343.177C478.783 346.999 474.777 348.188 470.905 350.197C471.282 348.385 471.634 346.569 471.949 344.743C476.263 342.367 480.953 340.164 483.398 335.611L483.331 335.565C480.741 339.749 476.213 341.551 472.102 343.828C472.155 343.503 472.215 343.18 472.266 342.853C472.531 341.16 472.778 339.463 473.022 337.768C475.501 336.773 477.865 335.372 480.095 333.919C481.679 332.887 483.37 331.865 484.407 330.247L484.254 330.139C481.939 333.455 476.87 335.372 473.127 337.031C473.37 335.317 473.611 333.604 473.855 331.889C478.009 329.376 482.897 327.987 485.453 323.455C485.529 323.321 485.331 323.197 485.247 323.328C482.599 327.465 477.939 328.741 473.97 331.089C474.122 330.028 474.277 328.967 474.437 327.907C478.923 326.257 484.139 322.501 486.505 318.447C486.635 318.223 486.313 318.016 486.166 318.229C483.754 321.788 478.906 325.656 474.569 327.064C474.834 325.345 475.111 323.629 475.418 321.916L475.483 321.765C477.498 321.172 479.489 319.752 481.227 318.679C483.323 317.385 485.323 315.884 486.629 313.757C486.773 313.523 486.39 313.305 486.255 313.547C484.262 317.103 479.534 319.487 475.619 320.844C475.734 320.219 475.847 319.595 475.971 318.971C476.155 318.039 476.346 317.105 476.535 316.173C478.139 315.067 480.174 314.537 481.783 313.368C483.182 312.352 484.403 311.128 485.602 309.887C485.722 309.765 485.545 309.575 485.419 309.693C483.795 311.219 482.125 312.684 480.147 313.741C479.042 314.333 477.782 314.671 476.711 315.32C477.025 313.796 477.337 312.272 477.635 310.745L477.693 310.733L477.75 310.745L478.013 310.663C480.193 310.113 481.859 308.237 483.323 306.639L483.267 306.581C481.73 308.001 479.983 309.575 477.925 310.185L477.905 310.176L477.749 310.152C477.986 308.909 478.213 307.665 478.421 306.419C478.578 306.391 478.715 306.256 478.678 306.099C479.834 305.324 480.883 304.335 481.869 303.368L481.759 303.249C480.735 304.132 479.725 304.86 478.573 305.497C478.979 302.923 479.295 300.332 479.439 297.717C479.453 297.475 479.086 297.472 479.065 297.711C478.837 300.228 478.471 302.721 478.037 305.203C476.835 303.625 475.497 302.001 474.762 300.196L474.609 300.241C474.969 301.363 475.589 302.343 476.202 303.34C476.751 304.232 477.19 305.271 477.89 306.063C477.647 307.395 477.386 308.723 477.111 310.051C475.65 309.816 474.31 309.539 473.103 308.48C471.626 307.185 470.786 305.424 470.641 303.471C470.622 303.231 470.243 303.232 470.265 303.472C470.431 305.288 471.154 306.996 472.397 308.351C473.703 309.775 475.238 310.229 476.998 310.595C476.678 312.127 476.347 313.657 476.01 315.187C474.683 314.391 473.45 313.351 472.254 312.396C470.322 310.857 469.182 309.005 467.506 307.272C467.338 307.1 467.065 307.349 467.23 307.527C468.801 309.196 469.863 311.004 471.649 312.504C472.935 313.584 474.355 314.939 475.89 315.737L475.837 315.98L475.786 316.023L475.751 316.365C475.429 317.829 475.107 319.295 474.798 320.764L474.743 321.04C471.327 319.476 466.223 316.759 465.77 312.796C465.727 312.42 465.165 312.524 465.253 312.909C466.262 317.395 471.191 319.383 474.587 321.828C474.253 323.488 473.945 325.152 473.663 326.821C471.457 326.061 469.359 325.123 467.507 323.651C465.822 322.311 463.439 320.695 462.681 318.619L462.583 318.661C463.285 320.724 465.423 322.143 466.979 323.551C468.953 325.336 470.973 326.852 473.511 327.567L473.505 327.789C473.33 328.848 473.162 329.907 473.001 330.968C468.853 330.649 463.047 327.499 460.927 324.361L460.907 324.377C462.353 326.772 464.538 328.171 467.003 329.384C468.843 330.292 470.833 331.365 472.915 331.52C472.618 333.483 472.329 335.447 472.037 337.411C470.237 336.74 468.33 336.419 466.549 335.707C463.902 334.647 461.879 332.743 460.321 330.403C460.227 330.261 459.991 330.381 460.085 330.528C462.957 335.093 467.089 336.433 471.927 338.143C471.686 339.753 471.433 341.363 471.167 342.971C467.206 342.212 462.085 339.793 460.081 336.353C459.933 336.101 459.531 336.311 459.678 336.565C460.943 338.771 463.125 340.164 465.35 341.288C466.953 342.097 469.159 343.439 471.069 343.583L471.042 343.74C470.65 346.053 470.194 348.356 469.701 350.649C465.275 349.537 462.415 346.26 459.199 343.192C458.977 342.979 458.626 343.304 458.849 343.521C462.125 346.747 465.002 350.129 469.554 351.323C469.146 353.188 468.711 355.051 468.261 356.907C464.493 355.853 460.762 353.179 458.325 350.107C458.151 349.888 457.849 350.184 458.013 350.4C460.546 353.733 464.199 356.249 468.087 357.627C467.598 359.62 467.091 361.608 466.581 363.596C462.709 363.007 459.726 360.583 457.342 357.519L457.214 357.615C459.333 360.563 462.537 363.967 466.393 364.324C466.229 364.957 466.066 365.592 465.902 366.225C465.803 366.607 465.701 366.995 465.594 367.387C462.675 366.528 459.966 365.48 457.557 363.512L457.475 363.619C459.765 365.68 462.506 367.069 465.435 367.971C465.11 369.164 464.767 370.391 464.427 371.641C463.703 371.304 463.003 370.935 462.211 370.697C460.759 370.263 459.819 369.341 458.555 368.583L458.425 368.752C459.535 369.476 460.314 370.408 461.581 370.884C462.518 371.239 463.402 371.688 464.309 372.091C462.978 377.051 461.801 382.323 462.438 387.083C462.581 388.139 464.351 388.419 464.626 387.295C465.466 383.844 465.423 380.157 465.815 376.629Z" fill="#7070C0"/>
<mask id="mask7_22_540" style="mask-type:luminance" maskUnits="userSpaceOnUse" x="404" y="294" width="40" height="85">
<path d="M438.111 340.075C440.723 351.104 449.327 367.953 437.279 376.868C434.035 379.268 429.415 378.393 426.005 376.516C421.543 374.06 417.218 366.476 415.166 361.941C413.538 358.348 412.902 353.793 411.615 350.004C410.225 345.911 408.753 341.845 407.394 337.741C402.499 322.947 404.355 307.775 413.493 294.997C416.595 299.157 420.599 302.037 424.587 305.561C426.403 307.168 428.187 308.927 429.743 310.772C432.499 314.043 433.034 318.393 433.791 322.401C434.913 328.327 436.722 334.203 438.111 340.075Z" fill="white"/>
</mask>
<g mask="url(#mask7_22_540)">
<path d="M438.111 340.075C440.723 351.104 449.327 367.953 437.279 376.868C434.035 379.268 429.415 378.393 426.005 376.516C421.543 374.06 417.218 366.476 415.166 361.941C413.538 358.348 412.902 353.793 411.615 350.004C410.225 345.911 408.753 341.845 407.394 337.741C402.499 322.947 404.355 307.775 413.493 294.997C416.595 299.157 420.599 302.037 424.587 305.561C426.403 307.168 428.187 308.927 429.743 310.772C432.499 314.043 433.034 318.393 433.791 322.401C434.913 328.327 436.722 334.203 438.111 340.075Z" fill="url(#paint7_linear_22_540)"/>
</g>
<path d="M435.185 378.256C434.885 377.368 434.597 376.475 434.314 375.579C435.905 374.835 437.139 373.16 438.151 371.845C439.91 369.567 440.985 366.973 441.949 364.284C441.999 364.141 441.762 364.059 441.699 364.195C440.594 366.563 439.401 368.915 437.709 370.928C436.766 372.049 435.433 373.784 434.033 374.655C433.702 373.581 433.39 372.504 433.09 371.424C434.65 370.449 435.662 368.656 436.677 367.169C438.402 364.645 439.601 361.861 440.905 359.109L440.858 359.085C438.705 362.959 436.647 368.005 432.878 370.656C432.511 369.297 432.158 367.936 431.842 366.568L431.794 366.353C435.991 362.935 437.474 357.703 439.713 352.989L439.598 352.919C437.309 357.376 435.418 362.127 431.61 365.544C431.165 363.583 430.738 361.62 430.314 359.659C433.882 356.064 436.146 351.94 437.519 347.025L437.393 346.981C435.787 351.673 433.223 355.132 430.133 358.817C429.713 356.875 429.29 354.935 428.843 352.997C430.281 351.215 431.979 349.745 433.141 347.74C434.285 345.763 435.147 343.636 435.417 341.359L435.231 341.333C434.434 345.92 431.305 348.688 428.642 352.144C428.218 350.343 427.77 348.548 427.286 346.759C430.195 342.783 433.517 338.808 433.811 333.648L433.731 333.636C433.149 338.521 429.805 342.065 427.039 345.865C426.95 345.548 426.869 345.229 426.777 344.912C426.302 343.265 425.81 341.623 425.313 339.983C427.143 338.035 428.694 335.768 430.103 333.508C431.103 331.905 432.205 330.264 432.462 328.359L432.277 328.327C431.579 332.309 427.793 336.185 425.098 339.271C424.595 337.613 424.091 335.959 423.59 334.303C426.294 330.271 430.138 326.947 430.543 321.761C430.555 321.607 430.325 321.579 430.305 321.732C429.65 326.601 425.963 329.724 423.355 333.529C423.045 332.501 422.738 331.475 422.435 330.445C425.806 327.057 428.95 321.451 429.382 316.776C429.407 316.519 429.026 316.467 428.985 316.723C428.299 320.967 425.537 326.517 422.201 329.625C421.714 327.956 421.242 326.283 420.797 324.603L420.793 324.436C422.369 323.049 423.574 320.92 424.698 319.215C426.051 317.157 427.231 314.949 427.517 312.473C427.547 312.199 427.11 312.163 427.09 312.439C426.783 316.504 423.502 320.661 420.526 323.544C420.367 322.929 420.205 322.315 420.054 321.697C419.829 320.773 419.607 319.848 419.387 318.923C420.373 317.243 421.994 315.904 422.959 314.164C423.799 312.653 424.39 311.028 424.953 309.397C425.009 309.236 424.769 309.137 424.703 309.299C423.875 311.369 422.979 313.4 421.635 315.193C420.882 316.197 419.882 317.035 419.186 318.075C418.826 316.56 418.466 315.048 418.091 313.539L418.139 313.503L418.195 313.489L418.399 313.304C420.143 311.885 420.863 309.481 421.515 307.413L421.441 307.385C420.646 309.323 419.727 311.485 418.119 312.907L418.095 312.908L417.943 312.952C417.637 311.725 417.315 310.501 416.979 309.284C417.109 309.192 417.177 309.012 417.077 308.884C417.797 307.695 418.331 306.356 418.815 305.063L418.667 305C418.111 306.233 417.502 307.32 416.727 308.385C416.009 305.88 415.202 303.397 414.229 300.965C414.139 300.74 413.806 300.892 413.886 301.117C414.742 303.496 415.463 305.911 416.118 308.343C414.362 307.421 412.463 306.513 411.035 305.187L410.915 305.292C411.713 306.157 412.69 306.784 413.667 307.429C414.541 308.007 415.378 308.763 416.346 309.185C416.69 310.495 417.013 311.811 417.323 313.128C415.901 313.532 414.569 313.847 413.027 313.396C411.142 312.845 409.637 311.604 408.681 309.895C408.562 309.685 408.219 309.845 408.341 310.053C409.258 311.631 410.635 312.876 412.333 313.579C414.119 314.319 415.702 314.083 417.451 313.669C417.807 315.195 418.153 316.72 418.494 318.249C416.954 318.089 415.397 317.665 413.91 317.307C411.51 316.725 409.695 315.528 407.443 314.664C407.218 314.579 407.075 314.921 407.301 315.011C409.429 315.863 411.154 317.052 413.409 317.66C415.031 318.095 416.889 318.723 418.617 318.8L418.67 319.043L418.643 319.104C418.585 319.257 418.651 319.371 418.757 319.428C419.082 320.891 419.409 322.356 419.749 323.817L419.814 324.091C416.058 324.115 410.285 323.807 408.202 320.404C408.003 320.081 407.538 320.413 407.779 320.727C410.589 324.365 415.895 324.087 420.005 324.871C420.403 326.517 420.826 328.156 421.275 329.788C418.955 330.031 416.657 330.065 414.357 329.511C412.263 329.008 409.422 328.549 407.858 326.988L407.786 327.067C409.294 328.641 411.83 329.024 413.834 329.644C416.378 330.431 418.85 330.952 421.453 330.528L421.541 330.733C421.83 331.767 422.125 332.797 422.425 333.828C418.53 335.288 411.938 334.883 408.693 332.933L408.681 332.956C411.001 334.516 413.574 334.863 416.319 334.924C418.371 334.969 420.627 335.103 422.582 334.364C423.139 336.269 423.707 338.171 424.27 340.075C422.357 340.227 420.491 340.74 418.577 340.845C415.729 341.001 413.093 340.129 410.693 338.665C410.547 338.577 410.383 338.784 410.53 338.88C415.061 341.807 419.37 341.276 424.479 340.784C424.941 342.347 425.393 343.912 425.829 345.481C421.918 346.465 416.254 346.436 412.985 344.161C412.745 343.995 412.47 344.356 412.709 344.525C414.789 345.989 417.354 346.332 419.845 346.412C421.639 346.469 424.206 346.755 425.997 346.079L426.041 346.232C426.662 348.495 427.219 350.775 427.739 353.063C423.258 353.923 419.282 352.159 415.073 350.733C414.779 350.635 414.599 351.077 414.894 351.181C419.225 352.721 423.261 354.575 427.891 353.733C428.31 355.599 428.702 357.469 429.077 359.343C425.215 359.977 420.705 359.128 417.199 357.372C416.95 357.247 416.799 357.644 417.039 357.771C420.743 359.721 425.115 360.461 429.222 360.069C429.621 362.083 430.001 364.1 430.375 366.116C426.617 367.216 422.89 366.277 419.435 364.507L419.362 364.648C422.526 366.425 426.867 368.159 430.513 366.855C430.633 367.499 430.751 368.143 430.87 368.787C430.942 369.175 431.013 369.571 431.082 369.969C428.073 370.423 425.174 370.616 422.159 369.849L422.131 369.98C425.077 370.883 428.147 370.985 431.185 370.565C431.393 371.784 431.599 373.043 431.819 374.319C431.022 374.319 430.23 374.279 429.413 374.397C427.913 374.616 426.671 374.179 425.203 374.024C425.07 374.009 425.021 374.213 425.158 374.232C426.47 374.421 427.57 374.937 428.921 374.835C429.919 374.76 430.91 374.795 431.901 374.776C432.787 379.833 433.945 385.109 436.534 389.157C437.107 390.053 438.831 389.56 438.605 388.427C437.911 384.943 436.315 381.619 435.185 378.256Z" fill="#7070C0"/>
<mask id="mask8_22_540" style="mask-type:luminance" maskUnits="userSpaceOnUse" x="426" y="271" width="40" height="106">
<path d="M463.563 331.527C464.183 345.54 470.743 368.016 454.033 376.061C449.531 378.228 444.118 376.097 440.407 373.025C435.551 369.005 432.049 358.784 430.603 352.797C429.458 348.052 429.738 342.368 429.051 337.463C428.31 332.164 427.461 326.881 426.759 321.576C424.235 302.459 430.003 284.443 444.07 271.027C446.879 276.801 451.081 281.229 455.11 286.439C456.949 288.812 458.709 291.361 460.174 293.965C462.767 298.579 462.409 303.993 462.402 309.04C462.394 316.501 463.233 324.065 463.563 331.527Z" fill="white"/>
</mask>
<g mask="url(#mask8_22_540)">
<path d="M463.563 331.527C464.183 345.54 470.743 368.016 454.033 376.061C449.531 378.228 444.118 376.097 440.407 373.025C435.551 369.005 432.049 358.784 430.603 352.797C429.458 348.052 429.738 342.368 429.051 337.463C428.31 332.164 427.461 326.881 426.759 321.576C424.235 302.459 430.003 284.443 444.07 271.027C446.879 276.801 451.081 281.229 455.11 286.439C456.949 288.812 458.709 291.361 460.174 293.965C462.767 298.579 462.409 303.993 462.402 309.04C462.394 316.501 463.233 324.065 463.563 331.527Z" fill="url(#paint8_linear_22_540)"/>
</g>
<path d="M451.163 377.264C451.006 376.115 450.862 374.963 450.726 373.809C452.831 373.272 454.721 371.521 456.257 370.16C458.921 367.796 460.829 364.891 462.622 361.847C462.717 361.684 462.447 361.529 462.339 361.679C460.447 364.303 458.451 366.885 455.93 368.94C454.525 370.085 452.502 371.887 450.597 372.619C450.445 371.239 450.313 369.857 450.199 368.473C452.322 367.652 453.967 365.704 455.545 364.133C458.226 361.464 460.329 358.356 462.55 355.313L462.498 355.272C458.985 359.484 455.315 365.143 450.121 367.492C449.987 365.756 449.874 364.019 449.807 362.281L449.798 362.009C455.694 358.825 458.705 352.808 462.519 347.597L462.397 347.485C458.579 352.373 455.181 357.711 449.762 360.984C449.675 358.496 449.61 356.011 449.55 353.528C454.718 349.987 458.425 345.496 461.233 339.839L461.09 339.756C458.051 345.089 454.134 348.7 449.523 352.463C449.463 350.004 449.398 347.548 449.305 345.092C451.463 343.256 453.869 341.863 455.745 339.693C457.593 337.553 459.135 335.168 459.989 332.463C460.035 332.321 459.821 332.251 459.769 332.389C457.739 337.779 453.291 340.421 449.255 344.005C449.158 341.719 449.03 339.432 448.854 337.145C453.311 332.987 458.269 328.923 459.822 322.717L459.729 322.684C457.889 328.489 453.002 332.023 448.761 336.003C448.727 335.596 448.701 335.189 448.662 334.781C448.466 332.669 448.249 330.559 448.026 328.449C450.701 326.505 453.11 324.108 455.347 321.688C456.934 319.971 458.654 318.231 459.407 315.975C459.454 315.832 459.243 315.752 459.19 315.892C457.419 320.572 451.918 324.409 447.929 327.535C447.702 325.404 447.471 323.275 447.245 321.147C451.466 316.871 456.909 313.72 458.602 307.509C458.651 307.325 458.378 307.236 458.317 307.42C456.395 313.185 451.19 316.131 447.138 320.152C446.999 318.831 446.865 317.511 446.735 316.189C451.617 312.852 456.737 306.764 458.346 301.181C458.434 300.875 457.983 300.723 457.873 301.024C456.058 306.025 451.415 312.133 446.638 315.139C446.434 312.996 446.247 310.853 446.094 308.707L446.129 308.503C448.366 307.181 450.323 304.875 452.085 303.06C454.207 300.873 456.151 298.463 457.073 295.517C457.174 295.192 456.649 295.048 456.561 295.377C455.249 300.248 450.298 304.541 446.011 307.359C445.961 306.573 445.906 305.789 445.866 305.003C445.805 303.828 445.75 302.652 445.697 301.476C447.283 299.661 449.565 298.409 451.142 296.519C452.511 294.876 453.606 293.037 454.669 291.185C454.774 291.001 454.505 290.827 454.389 291.007C452.903 293.331 451.343 295.595 449.293 297.464C448.146 298.508 446.735 299.296 445.647 300.397C445.562 298.475 445.474 296.551 445.369 294.631L445.433 294.599L445.506 294.595C445.646 294.587 445.739 294.513 445.797 294.417C448.245 293.097 449.677 290.339 450.949 287.977L450.865 287.927C449.45 290.097 447.833 292.512 445.547 293.869L445.519 293.865L445.323 293.884C445.234 292.321 445.129 290.76 444.999 289.201C445.181 289.119 445.305 288.916 445.211 288.739C446.363 287.457 447.323 285.953 448.211 284.495L448.045 284.384C447.085 285.755 446.091 286.935 444.903 288.051C444.61 284.836 444.203 281.633 443.583 278.451C443.526 278.157 443.086 278.265 443.133 278.556C443.622 281.648 443.938 284.749 444.171 287.857C442.251 286.329 440.153 284.787 438.723 282.843L438.553 282.943C439.323 284.18 440.366 285.168 441.403 286.179C442.333 287.083 443.175 288.196 444.255 288.935C444.369 290.605 444.457 292.279 444.531 293.953C442.705 294.115 441.014 294.189 439.245 293.285C437.081 292.18 435.537 290.321 434.77 288.021C434.675 287.74 434.221 287.856 434.321 288.137C435.071 290.267 436.457 292.099 438.358 293.345C440.359 294.659 442.337 294.739 444.559 294.643C444.639 296.577 444.706 298.513 444.766 300.451C442.931 299.899 441.137 299.024 439.413 298.243C436.629 296.981 434.699 295.105 432.162 293.535C431.909 293.377 431.655 293.761 431.909 293.923C434.299 295.449 436.121 297.297 438.721 298.555C440.591 299.461 442.705 300.656 444.787 301.149L444.798 301.455L444.75 301.523C444.643 301.696 444.699 301.851 444.813 301.943C444.869 303.799 444.927 305.656 445.002 307.509L445.021 307.857C440.447 307.017 433.499 305.305 431.757 300.688C431.59 300.249 430.946 300.545 431.167 300.981C433.739 306.056 440.257 306.945 445.071 308.851C445.173 310.943 445.309 313.035 445.478 315.123C442.599 314.881 439.798 314.389 437.13 313.184C434.702 312.088 431.353 310.872 429.813 308.611L429.707 308.691C431.177 310.953 434.171 312.007 436.465 313.223C439.375 314.769 442.258 315.976 445.521 316.063L445.581 316.332C445.694 317.656 445.813 318.977 445.938 320.299C440.866 321.173 432.946 319.155 429.451 316.032L429.43 316.057C431.891 318.492 434.938 319.508 438.262 320.217C440.747 320.748 443.459 321.433 446.005 320.987C446.242 323.432 446.491 325.877 446.737 328.323C444.373 328.063 441.989 328.255 439.637 327.939C436.138 327.471 433.135 325.8 430.554 323.464C430.399 323.324 430.153 323.537 430.309 323.687C435.139 328.293 440.501 328.648 446.826 329.232C447.026 331.239 447.211 333.247 447.379 335.256C442.397 335.547 435.517 334.199 432.07 330.677C431.817 330.42 431.398 330.793 431.65 331.055C433.839 333.316 436.878 334.328 439.889 335C442.057 335.487 445.111 336.427 447.445 336.02L447.462 336.217C447.694 339.112 447.843 342.012 447.946 344.915C442.301 344.921 437.874 341.855 433.086 339.149C432.754 338.961 432.431 339.457 432.765 339.653C437.674 342.528 442.151 345.715 447.977 345.765C448.051 348.128 448.095 350.493 448.117 352.859C443.277 352.736 437.989 350.66 434.134 347.712C433.861 347.503 433.586 347.949 433.849 348.16C437.899 351.389 443.043 353.301 448.127 353.775C448.145 356.316 448.141 358.855 448.129 361.393C443.305 361.86 438.991 359.856 435.202 356.904L435.078 357.057C438.513 359.952 443.39 363.064 448.125 362.324C448.121 363.133 448.117 363.944 448.111 364.755C448.109 365.243 448.102 365.74 448.094 366.241C444.331 366.096 440.762 365.66 437.275 364.029L437.21 364.181C440.583 365.96 444.294 366.796 448.082 366.991C448.053 368.52 448.014 370.097 447.986 371.699C447.015 371.513 446.061 371.283 445.039 371.239C443.165 371.157 441.758 370.337 440.011 369.809C439.851 369.761 439.745 369.996 439.907 370.052C441.458 370.585 442.675 371.467 444.339 371.656C445.573 371.795 446.769 372.067 447.978 372.273C447.883 378.629 448.071 385.311 450.281 390.829C450.77 392.053 452.979 391.852 452.969 390.421C452.93 386.027 451.759 381.615 451.163 377.264Z" fill="#7070C0"/>
<path d="M472.787 382.513L472.169 393.904L471.201 411.641L469.614 440.784H430.158L428.573 411.641L427.603 393.904L426.985 382.513H472.787Z" fill="#92A6B3"/>
<path d="M472.169 393.904L472.041 396.188L471.915 398.552L471.201 411.641H428.573L427.858 398.552L427.731 396.188L427.603 393.904H472.169Z" fill="#A4B7C7"/>
<path d="M472.041 396.188L471.915 398.552H427.858L427.731 396.188H472.041Z" fill="#92A6B3"/>
<defs>
<radialGradient id="paint0_radial_22_540" cx="0" cy="0" r="1" gradientUnits="userSpaceOnUse" gradientTransform="translate(330.367 150.139) scale(17.234 17.234)">
<stop stop-color="#FABDA6"/>
<stop offset="1" stop-color="#F9AD90"/>
</radialGradient>
<radialGradient id="paint1_radial_22_540" cx="0" cy="0" r="1" gradientUnits="userSpaceOnUse" gradientTransform="translate(320.397 118.944) rotate(-12.1516) scale(27.1702 27.1702)">
<stop stop-color="#FABDA6"/>
<stop offset="1" stop-color="#F9AD90"/>
</radialGradient>
<radialGradient id="paint2_radial_22_540" cx="0" cy="0" r="1" gradientUnits="userSpaceOnUse" gradientTransform="translate(293.625 410.364) scale(10.8345 10.8345)">
<stop stop-color="#FABDA6"/>
<stop offset="1" stop-color="#F9AD90"/>
</radialGradient>
<radialGradient id="paint3_radial_22_540" cx="0" cy="0" r="1" gradientUnits="userSpaceOnUse" gradientTransform="translate(225.006 413.081) scale(9.86871)">
<stop stop-color="#FABDA6"/>
<stop offset="1" stop-color="#F9AD90"/>
</radialGradient>
<radialGradient id="paint4_radial_22_540" cx="0" cy="0" r="1" gradientUnits="userSpaceOnUse" gradientTransform="translate(285.089 227.896) rotate(9.121) scale(55.259 55.2589)">
<stop stop-color="#FABDA6"/>
<stop offset="1" stop-color="#F9AD90"/>
</radialGradient>
<radialGradient id="paint5_radial_22_540" cx="0" cy="0" r="1" gradientUnits="userSpaceOnUse" gradientTransform="translate(285.089 227.896) rotate(9.12105) scale(55.2586 55.2586)">
<stop stop-color="#FABDA6"/>
<stop offset="1" stop-color="#F9AD90"/>
</radialGradient>
<linearGradient id="paint6_linear_22_540" x1="472.166" y1="291.997" x2="472.17" y2="376.398" gradientUnits="userSpaceOnUse">
<stop stop-color="#5C60B6"/>
<stop offset="1" stop-color="#523EA0"/>
</linearGradient>
<linearGradient id="paint7_linear_22_540" x1="405.221" y1="298.849" x2="440.847" y2="375.362" gradientUnits="userSpaceOnUse">
<stop stop-color="#5C60B6"/>
<stop offset="1" stop-color="#523EA0"/>
</linearGradient>
<linearGradient id="paint8_linear_22_540" x1="433.125" y1="273.793" x2="458.716" y2="375.06" gradientUnits="userSpaceOnUse">
<stop stop-color="#5C60B6"/>
<stop offset="1" stop-color="#523EA0"/>
</linearGradient>
</defs>
</svg>
