<svg width="515" height="487" viewBox="0 0 515 487" fill="none" xmlns="http://www.w3.org/2000/svg">
<path d="M512.479 446.214C512.479 455.828 397.875 463.62 256.503 463.62C115.132 463.62 0.527069 455.828 0.527069 446.214C0.527069 436.601 115.132 428.808 256.503 428.808C397.875 428.808 512.479 436.601 512.479 446.214Z" fill="#E6EDF0"/>
<path d="M462.568 476.428C462.568 482.011 444.501 486.536 422.216 486.536C399.931 486.536 381.865 482.011 381.865 476.428C381.865 470.845 399.931 466.32 422.216 466.32C444.501 466.32 462.568 470.845 462.568 476.428Z" fill="#E6EDF0"/>
<path d="M261.019 365.457H109.829C86.7653 365.457 68.068 384.153 68.068 407.217C68.068 430.28 86.7653 448.977 109.829 448.977H261.019V365.457Z" fill="#EE1E51"/>
<path d="M109.829 448.977C109.808 448.977 109.787 448.977 109.767 448.977C109.788 448.977 109.808 448.977 109.829 448.977ZM109.748 448.977C109.732 448.977 109.72 448.977 109.704 448.977C109.72 448.977 109.733 448.977 109.748 448.977ZM109.559 448.976C109.536 448.976 109.516 448.976 109.495 448.976C109.516 448.976 109.537 448.976 109.559 448.976ZM109.481 448.976C109.465 448.976 109.448 448.976 109.432 448.975C109.448 448.976 109.464 448.976 109.481 448.976ZM109.413 448.975C109.399 448.975 109.381 448.975 109.367 448.975C109.383 448.975 109.397 448.975 109.413 448.975ZM109.287 448.973C109.265 448.973 109.244 448.973 109.223 448.973C109.245 448.973 109.264 448.973 109.287 448.973ZM109.217 448.973C109.197 448.972 109.18 448.972 109.161 448.972C109.18 448.972 109.199 448.972 109.217 448.973ZM109.143 448.972C109.128 448.972 109.112 448.971 109.097 448.971C109.112 448.971 109.129 448.972 109.143 448.972ZM109.079 448.971C109.064 448.971 109.047 448.969 109.031 448.969C109.045 448.969 109.064 448.971 109.079 448.971ZM108.873 448.967C108.859 448.967 108.844 448.965 108.828 448.965C108.843 448.965 108.859 448.967 108.873 448.967ZM108.809 448.965C108.793 448.964 108.78 448.964 108.764 448.964C108.779 448.964 108.793 448.964 108.809 448.965ZM108.745 448.964C108.705 448.963 108.663 448.961 108.621 448.96C108.664 448.961 108.704 448.963 108.745 448.964ZM108.604 448.96C108.588 448.959 108.575 448.959 108.559 448.959C108.575 448.959 108.589 448.959 108.604 448.96ZM108.415 448.953C108.393 448.953 108.373 448.952 108.352 448.952C108.373 448.952 108.395 448.953 108.415 448.953ZM108.269 448.948C108.256 448.948 108.243 448.948 108.229 448.947C108.243 448.948 108.255 448.948 108.269 448.948ZM108.205 448.947C108.191 448.945 108.176 448.945 108.161 448.944C108.177 448.945 108.191 448.945 108.205 448.947ZM108.144 448.944C108.124 448.943 108.104 448.943 108.084 448.941C108.103 448.943 108.125 448.943 108.144 448.944ZM108.068 448.941C108.053 448.94 108.037 448.94 108.023 448.939C108.039 448.94 108.053 448.94 108.068 448.941ZM107.999 448.937C107.987 448.937 107.975 448.937 107.961 448.936C107.973 448.936 107.988 448.937 107.999 448.937ZM107.936 448.934C107.924 448.934 107.911 448.933 107.899 448.933C107.911 448.933 107.923 448.934 107.936 448.934ZM107.875 448.932C107.857 448.932 107.84 448.931 107.823 448.929C107.841 448.931 107.856 448.932 107.875 448.932ZM107.665 448.922C107.655 448.921 107.645 448.921 107.636 448.92C107.647 448.921 107.655 448.921 107.665 448.922ZM107.604 448.919C107.595 448.919 107.587 448.917 107.577 448.917C107.587 448.919 107.593 448.919 107.604 448.919ZM107.517 448.915C107.509 448.914 107.499 448.914 107.489 448.914C107.499 448.914 107.508 448.914 107.517 448.915ZM107.456 448.91C107.447 448.91 107.439 448.909 107.429 448.909C107.439 448.909 107.448 448.91 107.456 448.91ZM107.395 448.908C107.387 448.907 107.379 448.907 107.371 448.907C107.377 448.907 107.388 448.907 107.395 448.908ZM107.335 448.904C107.328 448.904 107.32 448.903 107.312 448.903C107.319 448.903 107.328 448.904 107.335 448.904ZM106.904 448.876C106.903 448.876 106.9 448.876 106.9 448.876C106.903 448.876 106.901 448.876 106.904 448.876ZM106.851 448.872C106.848 448.872 106.845 448.872 106.843 448.872C106.847 448.872 106.848 448.872 106.851 448.872ZM106.793 448.868H106.792C106.793 448.868 106.792 448.868 106.793 448.868Z" fill="#EF72A0"/>
<path d="M255.223 448.977H109.829C109.808 448.977 109.788 448.977 109.767 448.977C109.76 448.977 109.755 448.977 109.748 448.977C109.733 448.977 109.72 448.977 109.704 448.977C109.697 448.977 109.689 448.977 109.683 448.977C109.668 448.977 109.652 448.977 109.637 448.977C109.632 448.977 109.627 448.977 109.621 448.976C109.601 448.976 109.583 448.976 109.563 448.976C109.561 448.976 109.559 448.976 109.559 448.976C109.537 448.976 109.516 448.976 109.495 448.976C109.489 448.976 109.485 448.976 109.481 448.976C109.464 448.976 109.448 448.976 109.432 448.975C109.425 448.975 109.42 448.975 109.413 448.975C109.397 448.975 109.383 448.975 109.367 448.975C109.36 448.975 109.356 448.975 109.351 448.975C109.332 448.975 109.316 448.975 109.297 448.973C109.295 448.973 109.291 448.973 109.287 448.973C109.264 448.973 109.245 448.973 109.223 448.973C109.221 448.973 109.219 448.973 109.217 448.973C109.199 448.972 109.18 448.972 109.161 448.972C109.156 448.972 109.149 448.972 109.143 448.972C109.129 448.972 109.112 448.971 109.097 448.971C109.091 448.971 109.087 448.971 109.079 448.971C109.064 448.971 109.045 448.969 109.031 448.969C109.025 448.969 109.021 448.969 109.016 448.969C108.975 448.968 108.933 448.968 108.891 448.967C108.885 448.967 108.88 448.967 108.873 448.967C108.859 448.967 108.843 448.965 108.828 448.965C108.823 448.965 108.815 448.965 108.809 448.965C108.793 448.964 108.779 448.964 108.764 448.964C108.757 448.964 108.752 448.964 108.745 448.964C108.704 448.963 108.664 448.961 108.621 448.96C108.616 448.96 108.611 448.96 108.604 448.96C108.589 448.959 108.575 448.959 108.559 448.959C108.553 448.959 108.545 448.957 108.54 448.957C108.524 448.957 108.509 448.957 108.493 448.956C108.488 448.956 108.483 448.956 108.477 448.956C108.457 448.955 108.437 448.955 108.417 448.953C108.417 448.953 108.416 448.953 108.415 448.953C108.395 448.953 108.373 448.952 108.352 448.952C108.347 448.952 108.341 448.951 108.336 448.951C108.321 448.951 108.305 448.949 108.291 448.949C108.284 448.949 108.276 448.949 108.269 448.948C108.255 448.948 108.243 448.948 108.229 448.947C108.221 448.947 108.213 448.947 108.205 448.947C108.191 448.945 108.177 448.945 108.161 448.944C108.156 448.944 108.151 448.944 108.144 448.944C108.125 448.943 108.103 448.943 108.084 448.941C108.077 448.941 108.075 448.941 108.068 448.941C108.053 448.94 108.039 448.94 108.023 448.939C108.015 448.939 108.007 448.939 107.999 448.937C107.988 448.937 107.973 448.936 107.961 448.936C107.953 448.936 107.945 448.936 107.936 448.934C107.923 448.934 107.911 448.933 107.899 448.933C107.891 448.933 107.883 448.932 107.875 448.932C107.856 448.932 107.841 448.931 107.823 448.929C107.812 448.929 107.801 448.929 107.791 448.928C107.779 448.928 107.768 448.927 107.757 448.927C107.747 448.927 107.736 448.925 107.727 448.925C107.716 448.924 107.707 448.924 107.696 448.924C107.687 448.922 107.676 448.922 107.665 448.922C107.655 448.921 107.647 448.921 107.636 448.92C107.625 448.92 107.613 448.92 107.604 448.919C107.593 448.919 107.587 448.919 107.577 448.917C107.557 448.916 107.539 448.916 107.517 448.915C107.508 448.914 107.499 448.914 107.489 448.914C107.477 448.912 107.468 448.912 107.456 448.91C107.448 448.91 107.439 448.909 107.429 448.909C107.419 448.909 107.405 448.908 107.395 448.908C107.388 448.907 107.377 448.907 107.371 448.907C107.359 448.905 107.348 448.904 107.335 448.904C107.328 448.904 107.319 448.903 107.312 448.903C107.288 448.902 107.263 448.9 107.24 448.898C107.233 448.897 107.228 448.897 107.223 448.897C107.208 448.896 107.197 448.896 107.184 448.895C107.177 448.895 107.171 448.893 107.164 448.893C107.152 448.893 107.137 448.892 107.124 448.891C107.117 448.891 107.112 448.891 107.105 448.889C107.092 448.889 107.079 448.888 107.064 448.886C107.06 448.886 107.057 448.886 107.053 448.886C107.004 448.883 106.953 448.88 106.904 448.876C106.901 448.876 106.903 448.876 106.9 448.876C106.883 448.875 106.868 448.873 106.851 448.872C106.848 448.872 106.847 448.872 106.843 448.872C106.827 448.871 106.811 448.869 106.793 448.868C106.792 448.868 106.793 448.868 106.792 448.868C89.464 447.623 75.068 435.803 70.012 419.829C77.6613 429.459 89.4653 435.64 102.719 435.64H224.628C232.253 443.844 243.139 448.977 255.223 448.977Z" fill="#ED1735"/>
<path d="M457.464 435.64V378.793H258.08C242.383 378.793 229.657 391.519 229.657 407.217C229.657 422.915 242.383 435.64 258.08 435.64H457.464Z" fill="#EFE0C7"/>
<path d="M229.685 406.075C229.671 406.453 229.657 406.833 229.657 407.217C229.657 422.915 242.383 435.64 258.08 435.64H457.464V406.075H229.685Z" fill="#DEC8AA"/>
<path d="M258.08 435.64C242.383 435.64 229.657 422.915 229.657 407.217C229.657 391.519 242.383 378.793 258.08 378.793H467.612C471.295 378.793 474.28 375.808 474.28 372.125C474.28 368.443 471.295 365.457 467.612 365.457H255.223C232.159 365.457 213.463 384.153 213.463 407.217C213.463 430.28 232.159 448.977 255.223 448.977H467.612C471.295 448.977 474.28 445.992 474.28 442.308C474.28 438.625 471.295 435.64 467.612 435.64H258.08Z" fill="#DB1938"/>
<path d="M248.419 403.841C247.185 403.841 246.185 404.841 246.185 406.075C246.185 407.307 247.185 408.307 248.419 408.307H457.464V403.841H248.419Z" fill="#BBA58D"/>
<path d="M338.755 408.307V428.808L347.911 421.2L357.068 428.808V408.307H338.755Z" fill="white"/>
<path d="M213.463 240.176C213.463 217.113 232.159 198.416 255.223 198.416H109.829C86.7653 198.416 68.068 217.113 68.068 240.176C68.068 263.24 86.7653 281.936 109.829 281.936H255.223C232.159 281.936 213.463 263.24 213.463 240.176Z" fill="#F37915"/>
<path d="M255.223 281.936C255.2 281.936 255.175 281.936 255.153 281.936C255.176 281.936 255.2 281.936 255.223 281.936ZM255.136 281.936C255.117 281.936 255.101 281.936 255.084 281.936C255.101 281.936 255.119 281.936 255.136 281.936ZM254.987 281.936C254.972 281.936 254.959 281.936 254.945 281.936C254.959 281.936 254.973 281.936 254.987 281.936ZM254.781 281.935C254.767 281.935 254.749 281.933 254.736 281.933C254.751 281.933 254.767 281.935 254.781 281.935ZM254.644 281.932C254.627 281.932 254.612 281.932 254.595 281.932C254.611 281.932 254.628 281.932 254.644 281.932ZM254.44 281.929C254.421 281.929 254.399 281.928 254.379 281.928C254.4 281.928 254.42 281.929 254.44 281.929ZM254.304 281.927C242.588 281.673 232.059 276.595 224.628 268.6C231.479 275.969 240.96 280.861 251.577 281.78C251.58 281.78 251.583 281.78 251.584 281.78C251.603 281.781 251.62 281.783 251.639 281.784C251.645 281.785 251.655 281.785 251.661 281.787C251.673 281.788 251.685 281.788 251.697 281.789C251.711 281.791 251.724 281.792 251.736 281.793C251.743 281.793 251.749 281.793 251.756 281.795C252.599 281.864 253.448 281.908 254.304 281.927Z" fill="#FBD1AA"/>
<path d="M255.223 281.936H232.201C232.163 281.936 232.124 281.936 232.085 281.936H141.32C141.591 277.607 141.825 273.109 141.996 268.6H224.628C232.059 276.595 242.588 281.673 254.304 281.927H254.305C254.328 281.927 254.349 281.928 254.372 281.928C254.375 281.928 254.377 281.928 254.379 281.928C254.399 281.928 254.421 281.929 254.44 281.929C254.444 281.929 254.448 281.929 254.451 281.929C254.471 281.929 254.489 281.931 254.509 281.931C254.513 281.931 254.519 281.931 254.523 281.931C254.541 281.931 254.559 281.931 254.576 281.932C254.583 281.932 254.589 281.932 254.595 281.932C254.612 281.932 254.627 281.932 254.644 281.932C254.651 281.932 254.659 281.933 254.665 281.933C254.681 281.933 254.697 281.933 254.713 281.933C254.721 281.933 254.728 281.933 254.736 281.933C254.749 281.933 254.767 281.935 254.781 281.935C254.789 281.935 254.797 281.935 254.805 281.935C254.82 281.935 254.835 281.935 254.849 281.935C254.857 281.935 254.867 281.935 254.876 281.935C254.889 281.935 254.903 281.935 254.917 281.936C254.927 281.936 254.936 281.936 254.945 281.936C254.959 281.936 254.972 281.936 254.987 281.936C254.996 281.936 255.005 281.936 255.015 281.936C255.029 281.936 255.044 281.936 255.059 281.936C255.067 281.936 255.076 281.936 255.084 281.936C255.101 281.936 255.117 281.936 255.136 281.936C255.141 281.936 255.147 281.936 255.153 281.936C255.175 281.936 255.2 281.936 255.223 281.936ZM122.863 281.936H118.54C118.761 277.595 118.98 273.089 119.184 268.6H122.165C122.392 273.055 122.625 277.559 122.863 281.936ZM101.22 281.047C100.651 280.927 100.087 280.795 99.5266 280.652C99.3386 280.605 99.1546 280.551 98.968 280.501C98.5426 280.387 98.1186 280.268 97.6986 280.14C97.4746 280.073 97.2533 280.001 97.032 279.931C96.644 279.807 96.26 279.676 95.8786 279.54C95.66 279.463 95.44 279.385 95.2226 279.305C94.8053 279.149 94.392 278.984 93.9813 278.815C93.8146 278.747 93.6453 278.683 93.48 278.612C92.9213 278.375 92.3706 278.125 91.8253 277.864C91.6493 277.78 91.4773 277.689 91.3013 277.603C90.924 277.415 90.548 277.224 90.176 277.025C89.956 276.908 89.7386 276.785 89.52 276.664C89.1973 276.484 88.8773 276.3 88.5586 276.112C88.336 275.98 88.1133 275.847 87.8933 275.711C87.5733 275.512 87.2573 275.308 86.9426 275.101C86.7413 274.969 86.5386 274.84 86.34 274.704C85.86 274.377 85.3853 274.041 84.92 273.695C84.7426 273.563 84.572 273.424 84.3973 273.291C84.0906 273.053 83.7853 272.817 83.484 272.572C83.268 272.396 83.056 272.216 82.844 272.036C82.592 271.823 82.3426 271.607 82.0973 271.388C81.8786 271.195 81.6626 270.999 81.4493 270.8C81.2133 270.581 80.9813 270.359 80.7493 270.133C80.5426 269.932 80.3333 269.732 80.1293 269.525C79.876 269.269 79.6293 269.005 79.3826 268.743C79.064 268.404 78.7506 268.059 78.444 267.708C78.2213 267.455 77.9973 267.201 77.78 266.943C77.58 266.703 77.3866 266.459 77.192 266.215C77.0093 265.987 76.828 265.757 76.6506 265.525C76.4546 265.269 76.2626 265.011 76.0733 264.751C75.9053 264.521 75.7426 264.291 75.58 264.057C75.3933 263.791 75.2066 263.524 75.0266 263.252C74.8706 263.017 74.7213 262.779 74.5693 262.54C74.248 262.035 73.9386 261.523 73.6386 261.003C73.5026 260.767 73.364 260.535 73.232 260.296C73.068 259.997 72.912 259.693 72.7546 259.391C72.632 259.153 72.508 258.917 72.3893 258.677C72.2373 258.371 72.092 258.061 71.9466 257.751C71.8346 257.508 71.724 257.263 71.616 257.017C71.4773 256.703 71.3386 256.388 71.208 256.069C71.1066 255.824 71.012 255.575 70.9146 255.327C70.6186 254.567 70.3413 253.797 70.0893 253.017L70.012 252.789C77.28 261.937 88.2973 267.975 100.747 268.553C100.868 272.76 101.032 276.969 101.22 281.047Z" fill="#EA611A"/>
<path d="M457.464 268.6V211.753H258.08C242.383 211.753 229.657 224.479 229.657 240.176C229.657 255.875 242.383 268.6 258.08 268.6H457.464Z" fill="#EFE0C7"/>
<path d="M229.685 239.033C229.671 239.413 229.657 239.793 229.657 240.176C229.657 255.875 242.383 268.6 258.08 268.6H457.464V239.033H229.685Z" fill="#DEC8AA"/>
<path d="M258.08 268.6C242.383 268.6 229.657 255.873 229.657 240.176C229.657 224.479 242.383 211.753 258.08 211.753H467.612C471.295 211.753 474.28 208.767 474.28 205.084C474.28 201.401 471.295 198.416 467.612 198.416H255.223C232.159 198.416 213.463 217.112 213.463 240.176C213.463 263.24 232.159 281.936 255.223 281.936H467.612C471.295 281.936 474.28 278.951 474.28 275.268C474.28 271.585 471.295 268.6 467.612 268.6H258.08Z" fill="#E04D1E"/>
<path d="M248.419 236.8C247.185 236.8 246.185 237.8 246.185 239.033C246.185 240.267 247.185 241.267 248.419 241.267H457.464V236.8H248.419Z" fill="#BBA58D"/>
<path d="M264.688 241.267V261.767L273.845 254.159L283.003 261.767V241.267H264.688Z" fill="white"/>
<path d="M191.493 198.416H185.764C185.893 197.64 185.995 196.84 186.067 196.021L187.361 195.719L191.493 198.416Z" fill="#FDE5D2"/>
<path d="M215.425 227.484L184.335 203.689C184.964 202.055 185.448 200.297 185.764 198.416H191.493L220.324 217.233C218.251 220.379 216.593 223.823 215.425 227.484Z" fill="#EE6B18"/>
<path d="M218.248 229.644L215.425 227.484C216.593 223.823 218.251 220.379 220.324 217.233L225.813 220.817L218.248 229.644Z" fill="#DA4520"/>
<path d="M377.479 281.936H232.085C255.149 281.936 273.845 300.634 273.845 323.696C273.845 346.76 255.149 365.458 232.085 365.458H377.479C400.543 365.458 419.239 346.76 419.239 323.696C419.239 300.634 400.543 281.936 377.479 281.936Z" fill="#B82283"/>
<path d="M351.473 365.458H232.085C232.108 365.458 232.132 365.458 232.155 365.456C232.161 365.456 232.165 365.456 232.172 365.456C232.189 365.456 232.205 365.456 232.224 365.456C232.232 365.456 232.241 365.456 232.249 365.456C232.263 365.456 232.279 365.456 232.293 365.456C232.303 365.456 232.312 365.456 232.321 365.456C232.335 365.456 232.348 365.456 232.363 365.456C232.372 365.456 232.381 365.456 232.391 365.456C232.404 365.456 232.417 365.456 232.432 365.455C232.44 365.455 232.449 365.455 232.459 365.455C232.473 365.455 232.488 365.455 232.501 365.455C232.509 365.455 232.519 365.455 232.527 365.455C232.541 365.455 232.559 365.455 232.572 365.454C232.58 365.454 232.587 365.454 232.595 365.454C232.609 365.454 232.627 365.454 232.643 365.454C232.649 365.454 232.657 365.454 232.664 365.454C232.681 365.452 232.696 365.452 232.713 365.452C232.719 365.452 232.725 365.452 232.731 365.452C232.749 365.452 232.767 365.451 232.785 365.451C232.789 365.451 232.795 365.451 232.799 365.451C232.819 365.451 232.836 365.451 232.856 365.45C232.86 365.45 232.864 365.45 232.867 365.45C232.887 365.45 232.908 365.45 232.928 365.448C232.931 365.448 232.933 365.448 232.936 365.448C232.959 365.448 232.98 365.447 233.003 365.447H233.004C233.393 365.439 233.781 365.426 234.168 365.406C245.416 364.854 255.495 359.85 262.68 352.12H345.003C345.641 357.798 348.048 362.142 351.473 365.458ZM410.213 349.612C408.897 348.402 407.576 347.208 406.272 346.048C410.497 343.474 414.231 340.168 417.296 336.31C417.023 337.172 416.716 338.019 416.389 338.858C416.295 339.102 416.201 339.346 416.101 339.587C415.969 339.908 415.831 340.226 415.691 340.543C415.583 340.786 415.475 341.027 415.363 341.267C415.217 341.58 415.069 341.892 414.917 342.202C414.8 342.438 414.677 342.671 414.557 342.904C414.397 343.21 414.241 343.518 414.075 343.819C413.951 344.044 413.817 344.266 413.689 344.488C413.381 345.024 413.061 345.552 412.731 346.072C412.583 346.306 412.436 346.54 412.284 346.771C412.101 347.044 411.913 347.314 411.725 347.583C411.564 347.814 411.403 348.042 411.237 348.268C411.047 348.531 410.852 348.791 410.656 349.048C410.511 349.239 410.363 349.426 410.213 349.612Z" fill="#AC1E77"/>
<path d="M29.8432 352.12V295.273H229.228C244.925 295.273 257.651 307.999 257.651 323.696C257.651 339.395 244.925 352.12 229.228 352.12H29.8432Z" fill="#EFE0C7"/>
<path d="M257.621 322.553C257.637 322.933 257.651 323.313 257.651 323.696C257.651 339.395 244.925 352.12 229.228 352.12H29.8432V322.553H257.621Z" fill="#DEC8AA"/>
<path d="M229.228 352.12C244.925 352.12 257.651 339.395 257.651 323.696C257.651 307.999 244.925 295.274 229.228 295.274H19.6964C16.0131 295.274 13.0276 292.288 13.0276 288.606C13.0276 284.922 16.0131 281.936 19.6964 281.936H232.085C255.149 281.936 273.845 300.634 273.845 323.696C273.845 346.76 255.149 365.458 232.085 365.458H19.6964C16.0131 365.458 13.0276 362.471 13.0276 358.788C13.0276 355.106 16.0131 352.12 19.6964 352.12H229.228Z" fill="#A11678"/>
<path d="M238.889 324.787C240.121 324.787 241.121 323.787 241.121 322.553C241.121 321.32 240.121 320.321 238.889 320.321H29.8432V324.787H238.889Z" fill="#BBA58D"/>
<path d="M52.2593 324.787V345.288L61.416 337.679L70.5733 345.288V324.787H52.2593Z" fill="white"/>
<path d="M376.469 186.262C376.469 186.262 366.655 181.918 365.591 193.901C364.527 205.884 363.433 221.198 353.436 229.526C336.657 243.505 374.213 235.077 374.213 235.077L383.007 200.385L376.469 186.262Z" fill="#332548"/>
<path d="M425.603 365.458H377.479C390.748 365.458 402.572 359.268 410.221 349.62C415.943 354.883 421.6 360.506 425.603 365.458Z" fill="#FBCBE0"/>
<path d="M431.389 448.98H416.195C416.195 448.979 416.195 448.979 416.195 448.977H431.389C431.389 448.979 431.389 448.979 431.389 448.98ZM409.751 448.98H393.711C393.711 448.979 393.711 448.979 393.711 448.977H409.751C409.751 448.979 409.751 448.979 409.751 448.98Z" fill="#EBBAD0"/>
<path d="M433.189 403.841H413.988C413.613 393.903 413.385 384.876 413.463 378.793H431.877C432.867 385.048 433.213 394.028 433.189 403.841ZM412.2 403.841H391.068C391.016 394.181 391.465 385.256 392.776 378.793H413.383C413.136 383.964 412.713 393.22 412.2 403.841Z" fill="#F3B0AB"/>
<path d="M432.189 435.64H415.463C415.007 427.015 414.536 417.416 414.164 408.307H433.155C433.037 417.441 432.647 427.032 432.189 435.64ZM410.556 435.64H392.545C391.88 427.055 391.309 417.477 391.127 408.307H411.983C411.544 417.253 411.053 426.86 410.556 435.64Z" fill="#E19E92"/>
<path d="M431.389 448.977H416.195C415.968 445.01 415.717 440.479 415.463 435.64H432.189C431.932 440.481 431.653 445.012 431.389 448.977ZM409.751 448.977H393.711C393.327 445.015 392.921 440.487 392.545 435.64H410.556C410.287 440.408 410.016 444.934 409.751 448.977ZM431.877 378.793H413.463C413.481 377.361 413.517 376.092 413.572 375.012C413.532 375.712 413.468 377.009 413.383 378.793H392.776C393 377.695 393.248 376.667 393.523 375.719C393.523 375.719 391.107 375.94 387.352 375.94C378.157 375.94 360.932 374.612 351.473 365.457H377.479H425.603C427.52 367.829 429.059 370.048 430.04 371.999C430.812 373.536 431.415 375.867 431.877 378.793Z" fill="#D61C30"/>
<path d="M433.155 408.307H414.164C414.103 406.803 414.044 405.312 413.988 403.841H433.189C433.187 405.313 433.175 406.804 433.155 408.307ZM411.983 408.307H391.127C391.096 406.805 391.076 405.315 391.068 403.841H412.2C412.129 405.305 412.056 406.797 411.983 408.307Z" fill="#BE827A"/>
<path d="M377.479 365.458C378.14 365.458 378.797 365.438 379.452 365.407C379.659 365.398 379.864 365.382 380.071 365.37C380.521 365.342 380.971 365.308 381.417 365.267C381.649 365.244 381.881 365.22 382.112 365.195C382.547 365.147 382.979 365.092 383.409 365.031C383.624 365 383.839 364.971 384.052 364.938C384.576 364.855 385.097 364.76 385.616 364.659L385.941 364.598C386.56 364.471 387.173 364.328 387.781 364.174C387.969 364.126 388.155 364.071 388.341 364.022C388.767 363.907 389.189 363.788 389.609 363.662C389.833 363.594 390.056 363.523 390.277 363.451C390.664 363.327 391.047 363.196 391.428 363.062C391.648 362.984 391.868 362.907 392.087 362.824C392.503 362.67 392.913 362.506 393.323 362.338C393.491 362.268 393.661 362.203 393.829 362.132C394.387 361.895 394.937 361.646 395.481 361.386C395.66 361.3 395.833 361.208 396.011 361.12C396.387 360.934 396.76 360.744 397.129 360.547C397.351 360.428 397.571 360.306 397.789 360.184C398.112 360.004 398.431 359.822 398.747 359.634C398.971 359.5 399.195 359.367 399.416 359.23C399.735 359.034 400.048 358.83 400.361 358.624C400.564 358.491 400.769 358.36 400.969 358.224C401.449 357.898 401.923 357.562 402.387 357.216C402.565 357.083 402.739 356.943 402.916 356.807C403.22 356.572 403.524 356.338 403.821 356.095C404.04 355.918 404.253 355.735 404.467 355.554C404.716 355.342 404.964 355.128 405.208 354.911C405.428 354.715 405.645 354.519 405.861 354.319C406.096 354.102 406.325 353.88 406.553 353.659C406.764 353.455 406.975 353.254 407.18 353.046C407.429 352.794 407.671 352.535 407.913 352.276C408.24 351.928 408.561 351.575 408.876 351.215C409.095 350.967 409.313 350.719 409.525 350.466C409.728 350.224 409.923 349.976 410.119 349.731C410.151 349.691 410.183 349.652 410.213 349.612C410.216 349.615 410.219 349.618 410.221 349.62C402.572 359.268 390.748 365.458 377.479 365.458ZM384.589 352.12H345.003C344.391 346.682 345.403 340.022 348.695 331.862L387.873 330.627C387.873 330.627 396.629 337.468 406.272 346.048C399.953 349.9 392.532 352.12 384.589 352.12Z" fill="#B51B70"/>
<path d="M377.479 365.458H351.473C348.048 362.142 345.641 357.798 345.003 352.12H384.589C392.532 352.12 399.953 349.9 406.272 346.048C407.576 347.208 408.897 348.402 410.213 349.612C410.183 349.652 410.151 349.691 410.119 349.731C409.923 349.976 409.728 350.224 409.525 350.466C409.313 350.719 409.095 350.967 408.876 351.215C408.561 351.575 408.24 351.928 407.913 352.276C407.671 352.535 407.429 352.794 407.18 353.046C406.975 353.254 406.764 353.455 406.553 353.659C406.325 353.88 406.096 354.102 405.861 354.319C405.645 354.519 405.428 354.715 405.208 354.911C404.964 355.128 404.716 355.342 404.467 355.554C404.253 355.735 404.04 355.918 403.821 356.095C403.524 356.338 403.22 356.572 402.916 356.807C402.739 356.943 402.565 357.083 402.387 357.216C401.923 357.562 401.449 357.898 400.969 358.224C400.769 358.36 400.564 358.491 400.361 358.624C400.048 358.83 399.735 359.034 399.416 359.23C399.195 359.367 398.971 359.5 398.747 359.634C398.431 359.822 398.112 360.004 397.789 360.184C397.571 360.306 397.351 360.428 397.129 360.547C396.76 360.744 396.387 360.934 396.011 361.12C395.833 361.208 395.66 361.3 395.481 361.386C394.937 361.646 394.387 361.895 393.829 362.132C393.661 362.203 393.491 362.268 393.323 362.338C392.913 362.506 392.503 362.67 392.087 362.824C391.868 362.907 391.648 362.984 391.428 363.062C391.047 363.196 390.664 363.327 390.277 363.451C390.056 363.523 389.833 363.594 389.609 363.662C389.189 363.788 388.767 363.907 388.341 364.022C388.155 364.071 387.969 364.126 387.781 364.174C387.173 364.328 386.56 364.471 385.941 364.598L385.616 364.659C385.097 364.76 384.576 364.855 384.052 364.938C383.839 364.971 383.624 365 383.409 365.031C382.979 365.092 382.547 365.147 382.112 365.195C381.881 365.22 381.649 365.244 381.417 365.267C380.971 365.308 380.521 365.342 380.071 365.37C379.864 365.382 379.659 365.398 379.452 365.407C378.797 365.438 378.14 365.458 377.479 365.458Z" fill="#A91964"/>
<path d="M428.348 467.885C428.348 467.885 431.54 468.04 437.603 471.597C447.057 477.148 444.368 485.217 431.96 479.664C423.189 475.74 418.493 472.174 423.007 468.638C427.521 465.101 428.348 467.885 428.348 467.885Z" fill="#332548"/>
<path d="M430.485 461.043L430.096 469.696C430.096 469.696 427.179 473.975 422.319 469.696L421.54 461.043H430.485Z" fill="#F8AB71"/>
<path d="M407.289 468.195C407.289 468.195 410.481 468.349 416.543 471.908C425.999 477.459 423.309 485.528 410.9 479.974C402.129 476.049 397.433 472.484 401.948 468.948C406.461 465.412 407.289 468.195 407.289 468.195Z" fill="#332548"/>
<path d="M409.425 461.353L409.037 470.007C409.037 470.007 406.12 474.285 401.259 470.007L400.481 461.353H409.425Z" fill="#F8AB71"/>
<path d="M351.213 329.344L390.396 328.099C390.396 328.099 425.581 355.599 432.56 369.481C439.539 383.364 432.764 461.731 432.764 461.731C432.764 461.731 424.98 465.983 419.611 461.731C419.611 461.731 415.189 390.533 416.096 372.493C415.692 379.58 412.765 448.236 411.021 461.731C411.021 461.731 401.627 465.447 397.869 461.731C397.869 461.731 389.601 395.471 396.044 373.192C396.044 373.192 331.121 379.149 351.213 329.344Z" fill="#313968"/>
<path d="M395.3 251.199C395.3 251.199 398.156 259.896 395.423 269.465C391.064 284.731 388.48 293.676 388.465 300.32C388.444 310.02 390.201 313.593 389.644 321.789C389.403 325.347 392.511 330.795 389.076 331.752C378.359 334.739 364.687 333.425 356.107 332.061C351.603 331.344 348.56 327.089 349.308 322.589C350.363 316.253 349.904 307.269 350.42 298.729C351.32 283.788 352.269 271.011 352.269 271.011C347.843 289.684 344.779 332.284 344.779 332.284C340.509 334.904 333.957 331.937 333.957 331.937C333.957 331.937 337.232 260.897 341.023 246.461C344.815 232.025 359.523 233.691 359.523 233.691L387.84 232.153C387.84 232.153 426.02 242.765 441.6 258.131V273.077C441.6 273.077 426.952 255.067 395.3 251.199Z" fill="#13AAA0"/>
<path d="M320.308 341.193L471.139 237.164C472.193 236.437 473.637 236.701 474.364 237.756L485.956 254.562C486.683 255.617 486.417 257.061 485.364 257.788L334.532 361.817C332.744 363.052 330.295 362.601 329.061 360.813L319.303 346.665C318.069 344.877 318.519 342.426 320.308 341.193Z" fill="#332548"/>
<path d="M474.891 238.52L494.135 225.248C495.773 224.118 498.019 224.529 499.149 226.168L505.593 235.512C506.724 237.151 506.312 239.396 504.673 240.527L485.429 253.799L474.891 238.52Z" fill="#CFD1D2"/>
<path d="M319.505 346.96L311.712 352.335C307.968 354.917 307.027 360.045 309.609 363.791C312.192 367.535 317.32 368.476 321.064 365.893L328.857 360.519L319.505 346.96Z" fill="#CFD1D2"/>
<path d="M382.035 329.056L367.809 308.431L361.992 312.444L376.217 333.068L382.035 329.056Z" fill="#CFD1D2"/>
<path d="M504.541 233.987L506.52 232.621C509.084 230.853 511.172 228.48 512.599 225.712L514.14 222.724L510.799 223.103C507.704 223.452 504.744 224.561 502.181 226.329L500.201 227.695L504.541 233.987Z" fill="#332548"/>
<path d="M321.683 340.245C317.815 334.636 319.225 326.954 324.835 323.086L365.585 294.98C366.804 294.14 368.471 294.446 369.311 295.664C370.151 296.881 369.844 298.549 368.627 299.389L327.609 327.68C324.436 329.868 323.639 334.214 325.827 337.386L321.683 340.245Z" fill="#CFD1D2"/>
<path d="M453.376 273.976C454.869 273.313 456.619 273.705 457.709 274.92L458.109 275.367C459.169 276.547 458.989 278.383 457.72 279.335L450.369 284.847C449.203 285.723 447.552 285.513 446.639 284.376L446.152 283.768C443.357 279.241 449.617 275.647 453.376 273.976Z" fill="#F8AB71"/>
<path d="M347.073 306.609L344.779 332.284C344.779 332.284 339.611 335.369 333.957 331.937L334.865 314.441L347.073 306.609Z" fill="#13AAA0"/>
<path d="M334.177 331.262C334.177 331.262 331.26 345.242 335.324 349.761C337.472 352.15 340.988 354.166 342.515 354.897C343.552 355.393 344.744 354.623 344.72 353.473C344.712 353.024 344.505 352.604 344.161 352.316C342.321 350.777 337.367 345.165 341.283 338.897C341.283 338.897 343.253 341.867 343.667 345.639C343.741 346.32 344.461 346.742 345.143 346.666C345.857 346.588 346.389 345.973 346.361 345.255C346.256 342.496 346.595 335.823 344.323 331.153L334.177 331.262Z" fill="#F8AB71"/>
<path d="M377.74 200.524C377.74 200.524 378.023 197.133 374.913 199.296C370.94 202.06 373.195 208.505 375.852 208.839C378.511 209.173 377.74 200.524 377.74 200.524Z" fill="#F8AB71"/>
<path d="M387.067 225.141C398.029 226.009 402.393 212.338 401.92 198.102C401.729 192.318 399.157 188.719 396.172 186.483C391.289 182.827 379.584 183.389 377.801 191.256C376.276 197.989 375.399 203.6 375.221 208.202L375.22 208.201C373.996 226.442 366.075 232.704 366.075 232.704C366.075 232.704 365.279 244.678 377.316 245.124C387.567 245.504 388.476 238.238 388.521 236.072C388.536 235.701 388.511 235.468 388.511 235.468C387.111 231.265 386.851 227.737 386.976 225.132L387.067 225.141Z" fill="#F8AB71"/>
<path d="M386.847 223.816C377.477 221.76 377.221 210.208 377.221 210.208C377.221 210.208 376.321 219.575 382.943 224.041C384.263 224.932 385.332 226.173 385.791 227.697C386.224 229.133 386.592 231.218 386.616 234.184C386.651 238.464 381.687 246.015 367.18 238.744C368.485 241.793 371.295 244.901 377.316 245.124C386.493 245.464 388.183 239.677 388.468 236.907C388.533 236.036 388.511 235.468 388.511 235.468C387.372 232.051 386.993 229.091 386.957 226.7C386.949 226.149 386.952 225.619 386.976 225.132L387.067 225.141L387.083 225.143C387.405 225.168 387.721 225.179 388.032 225.179C388.167 225.179 388.297 225.169 388.431 225.165C388.605 225.159 388.781 225.155 388.953 225.141C389.123 225.128 389.288 225.104 389.455 225.083C389.58 225.067 389.707 225.053 389.831 225.033C390.021 225.001 390.208 224.961 390.393 224.92L390.664 224.86C390.871 224.808 391.073 224.748 391.273 224.684L391.457 224.624C391.675 224.549 391.889 224.468 392.1 224.38L392.211 224.332C392.437 224.233 392.66 224.128 392.877 224.013L392.927 223.986C393.157 223.864 393.385 223.732 393.607 223.59C392.637 223.897 391.883 224.92 386.847 223.816Z" fill="#D78148"/>
<path d="M396.067 197.788C396.067 197.788 391.163 205.281 376.427 201.396C374.308 200.836 370.491 198.768 370.747 196.592C371.369 191.301 372.819 180.573 389.915 181.7C395.832 182.091 401.567 186.165 402.149 192.065C402.165 192.228 402.729 197.856 398.525 197.957C398.048 197.969 396.649 197.969 396.067 197.788Z" fill="#332548"/>
<path d="M395.416 202.648C396.199 202.179 398.081 201.451 402.149 201.556C402.149 201.556 398.377 202.084 395.895 203.47C395.604 203.632 395.243 203.458 395.192 203.13C395.163 202.938 395.251 202.748 395.416 202.648Z" fill="#332548"/>
<path d="M397.456 205.925C397.673 206.777 398.539 207.292 399.391 207.075C400.243 206.859 400.757 205.993 400.54 205.141C400.324 204.289 399.457 203.775 398.607 203.991C397.755 204.208 397.24 205.073 397.456 205.925Z" fill="#332548"/>
<path d="M390.084 204.004C389.172 203.965 387.171 204.225 383.647 206.261C383.647 206.261 387.212 204.923 390.057 204.955C390.389 204.959 390.623 204.633 390.511 204.32C390.444 204.137 390.277 204.012 390.084 204.004Z" fill="#332548"/>
<path d="M389.857 207.859C390.075 208.709 389.559 209.576 388.708 209.792C387.856 210.009 386.989 209.495 386.773 208.643C386.557 207.791 387.072 206.925 387.923 206.708C388.775 206.492 389.641 207.007 389.857 207.859Z" fill="#332548"/>
<path d="M393.649 204.58L398.437 212.559L397.204 212.874C395.871 213.212 394.544 212.298 394.385 210.931L393.649 204.58Z" fill="#F1473A"/>
<path d="M393.183 218.837C391.003 219.083 389.644 217.824 389.644 217.824C389.644 217.824 390.875 218.269 393.091 218.02C395.308 217.771 396.409 217.065 396.409 217.065C396.409 217.065 395.363 218.593 393.183 218.837Z" fill="#332548"/>
<path d="M379.208 200.301C379.208 200.301 376.828 208.251 377.913 214.411C377.913 214.411 375.401 207.164 376.829 199.441L379.208 200.301Z" fill="#332548"/>
<path d="M109.713 281.936H101.261C101.248 281.643 101.235 281.343 101.22 281.048C103.963 281.623 106.803 281.928 109.713 281.936ZM177.444 198.416H126.729C136.652 189.533 145.849 182.345 145.849 182.345L185.032 183.591C186.091 188.22 186.384 192.344 186.067 196.021L177.056 198.12L177.444 198.416Z" fill="#FDE5D2"/>
<path d="M109.727 281.936H109.713C106.803 281.928 103.963 281.623 101.22 281.048V281.047C101.269 281.057 101.317 281.067 101.367 281.077L101.689 281.137C102.209 281.24 102.731 281.335 103.256 281.417C103.469 281.451 103.684 281.479 103.897 281.509C104.328 281.571 104.761 281.627 105.196 281.675C105.427 281.7 105.659 281.724 105.889 281.745C106.337 281.788 106.787 281.821 107.239 281.848C107.444 281.861 107.649 281.877 107.856 281.887C108.477 281.916 109.1 281.935 109.727 281.936ZM141.996 268.6H122.165C121.175 248.991 120.351 230.261 120.149 226.74C120.532 234.348 119.967 251.409 119.184 268.6H102.719C102.057 268.6 101.4 268.584 100.747 268.553C100.191 249.231 100.548 229.968 103.685 223.728C107.096 216.944 117.244 206.907 126.729 198.416H177.444L184.335 203.689C175.692 226.177 139.735 226.176 139.735 226.176C142.375 235.305 142.623 252.035 141.996 268.6Z" fill="#EE6B18"/>
<path d="M141.32 281.936H122.863C122.625 277.559 122.392 273.055 122.165 268.6H141.996C141.825 273.109 141.591 277.607 141.32 281.936ZM118.54 281.936H109.727C109.1 281.935 108.477 281.916 107.856 281.887C107.649 281.877 107.444 281.861 107.239 281.848C106.787 281.821 106.337 281.788 105.889 281.745C105.659 281.724 105.427 281.7 105.196 281.675C104.761 281.627 104.328 281.571 103.897 281.509C103.684 281.479 103.469 281.451 103.256 281.417C102.731 281.335 102.209 281.24 101.689 281.137L101.367 281.077C101.317 281.067 101.269 281.057 101.22 281.047C101.032 276.969 100.868 272.76 100.747 268.553C101.4 268.584 102.057 268.6 102.719 268.6H119.184C118.98 273.089 118.761 277.595 118.54 281.936Z" fill="#E5561C"/>
<path d="M185.764 198.416H177.444L177.056 198.12L186.067 196.021C185.995 196.84 185.893 197.64 185.764 198.416Z" fill="#FBCCA7"/>
<path d="M184.335 203.689L177.444 198.416H185.764C185.448 200.297 184.964 202.055 184.335 203.689Z" fill="#E95F1A"/>
<path d="M135.227 320.321H127.088L126.919 316.549C125.888 316.237 125.224 315.977 125.224 315.977C124.752 312.333 124.195 304.665 123.625 295.273H140.357C139.372 307.363 138.376 315.977 138.376 315.977C137.608 316.737 136.599 317.175 135.488 317.408L135.227 320.321ZM114.14 320.321H106.043L105.893 316.985C104.436 316.492 103.481 315.977 103.481 315.977C103.481 315.977 102.733 307.331 101.991 295.273H117.833C117.172 307.317 116.633 315.977 116.633 315.977C115.929 316.536 115.181 316.94 114.417 317.235L114.14 320.321Z" fill="#EDC79F"/>
<path d="M118.189 334.828C112.344 334.828 112.489 329.128 119.703 324.895C119.764 324.857 119.825 324.823 119.887 324.787H136.04C136.004 327.405 131.768 330.087 125.345 332.961C122.401 334.277 120.007 334.828 118.189 334.828ZM97.1307 334.519C91.3787 334.519 91.4267 328.997 98.3053 324.787H114.956C114.607 327.307 110.455 329.889 104.285 332.651C101.343 333.968 98.9467 334.519 97.1307 334.519Z" fill="#DBB188"/>
<path d="M140.357 295.273H123.625C123.372 291.1 123.116 286.588 122.863 281.936H141.32C141.027 286.649 140.692 291.161 140.357 295.273ZM117.833 295.273H101.991C101.737 291.155 101.484 286.643 101.261 281.936H109.713H109.727H118.54C118.301 286.639 118.06 291.152 117.833 295.273Z" fill="#9C1662"/>
<path d="M136.04 324.787H119.887C123.197 322.863 125.633 321.963 127.143 321.544L127.088 320.321H135.227L135.023 322.584C135.725 323.315 136.049 324.048 136.04 324.787ZM114.956 324.787H98.3053C98.416 324.719 98.5293 324.651 98.6426 324.584C102.048 322.585 104.547 321.66 106.084 321.233L106.043 320.321H114.14L113.964 322.275C114.765 323.107 115.073 323.944 114.956 324.787Z" fill="#B99370"/>
<path d="M105.375 318.349C105.375 318.349 102.183 318.504 96.1213 322.061C86.6653 327.612 89.3547 335.681 101.764 330.128C110.535 326.204 115.231 322.637 110.716 319.101C106.203 315.565 105.375 318.349 105.375 318.349Z" fill="#332548"/>
<path d="M103.239 311.507L103.627 320.16C103.627 320.16 106.544 324.439 111.405 320.16L112.183 311.507H103.239Z" fill="#F8AB71"/>
<path d="M126.433 318.659C126.433 318.659 123.243 318.814 117.18 322.372C107.724 327.923 110.415 335.992 122.823 330.439C131.593 326.514 136.289 322.948 131.776 319.412C127.261 315.876 126.433 318.659 126.433 318.659Z" fill="#332548"/>
<path d="M124.297 311.817L124.687 320.47C124.687 320.47 127.603 324.749 132.464 320.47L133.243 311.817H124.297Z" fill="#F8AB71"/>
<path d="M182.509 179.808L143.327 178.563C143.327 178.563 108.143 206.063 101.164 219.945C94.184 233.828 100.959 312.195 100.959 312.195C100.959 312.195 108.744 316.447 114.112 312.195C114.112 312.195 118.533 240.997 117.628 222.957C118.032 230.044 120.957 298.7 122.701 312.195C122.701 312.195 132.096 315.911 135.855 312.195C135.855 312.195 143.655 244.672 137.213 222.393C137.213 222.393 192.251 222.393 182.509 179.808Z" fill="#6E2C3C"/>
<path d="M138.423 101.662C138.423 101.662 138.176 133.825 138.205 147.341C138.227 157.041 137.96 166.432 138.517 174.628C138.76 178.185 141.212 181.258 144.647 182.216C155.364 185.202 169.037 183.889 177.616 182.525C182.121 181.808 185.163 177.553 184.415 173.053C183.36 166.717 183.819 157.733 183.304 149.193C182.404 134.252 181.455 121.474 181.455 121.474C185.881 140.148 188.945 182.748 188.945 182.748C193.213 185.368 199.765 182.401 199.765 182.401C199.765 182.401 196.492 111.361 192.7 96.9251C188.908 82.4891 174.2 84.1545 174.2 84.1545L145.883 82.6171C145.883 82.6171 107.704 93.2291 92.124 108.594V123.541C92.124 123.541 106.771 105.53 138.423 101.662Z" fill="#F14639"/>
<path d="M172.051 84.0385L145.883 82.6172C145.883 82.6172 145.759 82.6225 145.552 82.6345C144.105 86.3785 140.736 100.883 154.203 91.9958C154.203 91.9958 169.577 105.869 172.051 84.0385Z" fill="#7A142A"/>
<path d="M164.468 39.8081C163.679 31.4481 151.671 29.3028 146.14 32.4268C142.759 34.3361 139.624 37.7094 138.653 43.6548C136.264 58.2894 138.944 72.9854 150.377 73.5534C163.113 74.1868 166.768 64.1481 164.468 39.8081Z" fill="#F8AB71"/>
<path d="M150.248 68.3868C150.248 68.3868 151.905 74.9215 147.507 84.0215C147.507 84.0215 146.096 89.6081 153.04 91.7548C159.984 93.9015 171.04 84.1655 171.04 84.1655C171.04 84.1655 163.697 76.6428 164.871 57.6482C164.871 57.6482 154.431 57.3188 150.248 68.3868Z" fill="#F8AB71"/>
<path d="M163.293 49.3838C163.293 49.3838 163.455 45.8465 166.376 48.4945C170.109 51.8785 166.921 58.2305 164.132 58.2212C161.343 58.2105 163.293 49.3838 163.293 49.3838Z" fill="#F8AB71"/>
<path d="M136.196 40.2519C136.196 40.2519 136.813 29.6586 152.225 29.0973C159.568 28.8293 164.631 33.9719 165.291 36.6693C165.343 36.8826 165.405 37.072 165.48 37.2133C165.607 37.4533 165.643 38.3546 166.191 38.3026C169.719 37.9626 171.04 46.68 166.408 48.4133L166.376 48.4946C166.376 48.4946 162.713 45.716 163.211 51.312C163.867 58.7093 160.296 54.6053 159.627 44.8493C159.627 44.8493 136.167 49.2933 136.196 40.2519Z" fill="#332548"/>
<path d="M144.112 52.0119C143.208 51.7225 141.128 51.4279 137.028 52.4972C137.028 52.4972 140.976 52.1399 143.821 52.9585C144.155 53.0545 144.479 52.7919 144.452 52.4465C144.437 52.2452 144.304 52.0745 144.112 52.0119Z" fill="#332548"/>
<path d="M142.819 55.8174C142.8 56.7321 142.043 57.4587 141.129 57.4401C140.215 57.4227 139.488 56.6654 139.505 55.7507C139.524 54.8361 140.28 54.1094 141.195 54.1281C142.109 54.1467 142.836 54.9027 142.819 55.8174Z" fill="#332548"/>
<path d="M149.839 52.1267C150.753 51.8734 152.844 51.6627 156.897 52.8961C156.897 52.8961 152.967 52.3801 150.091 53.0841C149.755 53.1667 149.441 52.8921 149.481 52.5481C149.504 52.3481 149.644 52.1814 149.839 52.1267Z" fill="#332548"/>
<path d="M150.979 55.9812C150.96 56.8959 151.687 57.6519 152.601 57.6705C153.516 57.6892 154.272 56.9626 154.291 56.0479C154.309 55.1332 153.583 54.3772 152.668 54.3585C151.753 54.3399 150.997 55.0666 150.979 55.9812Z" fill="#332548"/>
<path d="M146.952 52.4387L143.292 63.8094L144.925 63.8414C146.692 63.8774 148.084 62.3481 147.883 60.5934L146.952 52.4387Z" fill="#F1473A"/>
<path d="M147.313 68.0799C149.597 68.1266 150.885 66.6933 150.885 66.6933C150.885 66.6933 149.652 67.2706 147.331 67.2239C145.009 67.1773 143.8 66.5506 143.8 66.5506C143.8 66.5506 145.031 68.0346 147.313 68.0799Z" fill="#332548"/>
<path d="M150.175 80.7321C150.587 75.3615 153.221 73.6215 153.221 73.6215C164.771 69.7388 162.536 59.4508 162.536 59.4508C162.536 59.4508 162.337 71.2455 152.391 72.1148C147.044 72.5828 144.792 71.5255 143.832 71.0802C145.581 72.5362 147.744 73.4228 150.377 73.5535L150.472 73.5561C150.253 76.2628 149.513 79.8695 147.507 84.0215C147.507 84.0215 146.096 89.6081 153.04 91.7548C156.948 92.9628 162.157 90.4082 165.967 87.9415C156.561 91.4735 149.796 85.6575 150.175 80.7321Z" fill="#D78148"/>
<path d="M55.1745 83.2748L28.9235 79.5282L41.7912 102.715L55.1745 83.2748Z" fill="#EBC99F"/>
<path d="M39.5469 81.0454C34.3765 80.3068 28.9235 79.5281 28.9235 79.5281L34.1307 88.9121L39.5469 81.0454Z" fill="#332548"/>
<path d="M41.7912 102.715L201.817 212.887L215.2 193.448L55.1745 83.2747L41.7912 102.715Z" fill="#2464B8"/>
<path d="M48.4828 92.9946L208.509 203.168L215.2 193.448L55.1745 83.2746L48.4828 92.9946Z" fill="#2750A9"/>
<path d="M201.817 212.886L207.457 216.771L220.841 197.332L215.2 193.448L201.817 212.886Z" fill="#CFD1D2"/>
<path d="M207.457 216.77L217.864 223.934C221.285 226.29 225.969 225.426 228.325 222.005L233.177 214.957C235.533 211.536 234.669 206.852 231.247 204.496L220.841 197.332L207.457 216.77Z" fill="#332548"/>
<path d="M199.545 181.727C199.545 181.727 202.463 195.707 198.399 200.226C196.252 202.615 192.736 204.631 191.208 205.362C190.172 205.858 188.98 205.087 189.003 203.938C189.012 203.488 189.217 203.068 189.563 202.78C191.401 201.242 196.357 195.63 192.44 189.362C192.44 189.362 190.469 192.331 190.057 196.104C189.983 196.784 189.261 197.207 188.58 197.131C187.865 197.052 187.335 196.439 187.361 195.719C187.467 192.96 187.129 186.287 189.401 181.618L199.545 181.727Z" fill="#F8AB71"/>
<path d="M188.308 174.737L188.945 182.748C188.945 182.748 194.113 185.834 199.765 182.401L199.609 179.157L188.308 174.737Z" fill="#F14639"/>
<path d="M80.3466 124.44C78.8546 123.777 77.1053 124.169 76.0146 125.384L75.6133 125.83C74.5533 127.01 74.7346 128.846 76.004 129.798L83.3533 135.31C84.52 136.186 86.172 135.977 87.084 134.84L87.5706 134.232C90.3653 129.705 84.1066 126.11 80.3466 124.44Z" fill="#F8AB71"/>
<path d="M121.665 448.977C136.159 443.956 147.824 432.265 152.704 416.996L165.651 376.475L125.716 389.612C106.339 395.987 92.8027 413.775 91.6293 434.411L90.8 448.977H121.665Z" fill="#0B877A"/>
<path d="M94.1973 448.977L165.651 376.475L125.716 389.612C106.339 395.987 92.8027 413.775 91.6293 434.411L90.8 448.977H94.1973Z" fill="#13AAA0"/>
<path d="M95.184 448.977L110.539 433.397H125.993V431.981H111.935L123.703 420.04H139.157V418.624H125.099L136.867 406.683H152.321V405.267H138.263L165.177 377.956L165.651 376.475L164.191 376.955L137.405 404.133V390.131H136.009V405.549L124.241 417.491V403.488H122.845V418.907L111.076 430.849L111.077 416.847H109.681V432.265L93.2107 448.977H95.184Z" fill="#42BFBA"/>
<path d="M93.448 448.977L92.6187 434.411C91.444 413.776 77.908 395.987 58.5307 389.612L18.5964 376.475L31.5432 416.996C36.4224 432.265 48.0875 443.956 62.5813 448.977H93.448Z" fill="#0B877A"/>
<path d="M90.0493 448.977L18.5964 376.475L31.5432 416.996C36.4224 432.265 48.0875 443.956 62.5813 448.977H90.0493Z" fill="#13AAA0"/>
<path d="M45.2193 419.908H60.4147L72.184 431.851L58.384 431.849V433.265H73.5787L89.0627 448.977H91.036L74.6947 432.396V416.715H73.3V430.98L61.5307 419.039V403.357H60.136V417.623L48.3667 405.681V390H46.9713V404.265L20.0568 376.955L18.5964 376.475L19.0697 377.956L45.8552 405.135H32.0552V406.551H47.2505L59.0187 418.492H45.2193V419.908Z" fill="#42BFBA"/>
<path d="M86.3827 448.977H97.864L105.52 440.256C120.688 422.979 123.851 398.027 113.485 377.417L92.124 334.944L70.7614 377.417C60.396 398.027 63.5587 422.979 78.7267 440.256L86.3827 448.977Z" fill="#0B877A"/>
<path d="M86.3827 448.977H92.124V334.944L70.7614 377.417C60.396 398.027 63.5587 422.979 78.7267 440.256L86.3827 448.977Z" fill="#13AAA0"/>
<path d="M80.4187 410.733L79.3147 411.853L91.3427 424.059V448.977H92.904V424.265L105.137 411.853L104.033 410.733L92.904 422.024V403.12L105.137 390.707L104.033 389.587L92.904 400.877V381.973L105.137 369.561L104.033 368.44L92.904 379.732V336.497L92.124 334.944L91.3427 336.497V379.524L80.4187 368.44L79.3147 369.561L91.3427 381.765V400.671L80.4187 389.587L79.3147 390.707L91.3427 402.912V421.817L80.4187 410.733Z" fill="#42BFBA"/>
<path d="M167.863 38.9133L166.648 39.2093C165.484 39.492 164.316 39.74 163.143 39.9533C160.62 40.416 158.075 40.7186 155.523 40.8573C149.117 41.2173 142.673 40.568 136.424 38.9133L138.844 22.5533H165.44L167.863 38.9133Z" fill="#4E4D87"/>
<path d="M152.143 13.6506L121.996 21.8987L152.143 30.344L182.289 21.8987L152.143 13.6506Z" fill="#3F3B6C"/>
<path d="M121.996 21.8988V22.4134L152.143 30.8574V30.3441L121.996 21.8988Z" fill="#63639A"/>
<path d="M182.289 22.4134V21.8988L152.143 30.3441V30.8574L182.289 22.4134Z" fill="#252625"/>
<path d="M182.76 36.3054C182.636 36.3054 182.536 36.2041 182.536 36.0801V22.9548C182.536 22.4961 182.163 22.1241 181.705 22.1241H152.144C152.019 22.1241 151.919 22.0241 151.919 21.9001C151.919 21.7747 152.019 21.6734 152.144 21.6734H181.705C182.412 21.6734 182.985 22.2481 182.985 22.9548V36.0801C182.985 36.2041 182.885 36.3054 182.76 36.3054Z" fill="#EF297D"/>
<path d="M183.373 32.0039H182.084V29.7106H183.373V32.0039Z" fill="#EF297D"/>
<path d="M183.853 28.816C183.853 29.4373 183.351 29.9399 182.729 29.9399C182.107 29.9399 181.604 29.4373 181.604 28.816C181.604 28.1946 182.107 27.6907 182.729 27.6907C183.351 27.6907 183.853 28.1946 183.853 28.816Z" fill="#EF297D"/>
<path d="M182.084 36.3135L182.02 36.3041L181.868 36.0241C181.869 36.0161 182.112 35.1655 181.864 34.0935C181.581 32.8695 182.132 31.9281 182.155 31.8881L182.463 31.8108L182.543 32.1188C182.537 32.1268 182.063 32.9508 182.303 33.9921C182.579 35.1855 182.311 36.1134 182.299 36.1521L182.084 36.3135Z" fill="#EF297D"/>
<path d="M183.284 36.3159C183.164 36.3159 183.064 36.2186 183.06 36.0972C183.057 36.0372 183.015 34.6119 183.151 33.5692C183.272 32.6346 182.975 32.1266 182.972 32.1212L183.048 31.8119L183.356 31.8852C183.372 31.9106 183.741 32.5212 183.597 33.6266C183.465 34.6346 183.509 36.0693 183.509 36.0826C183.513 36.2066 183.416 36.3106 183.292 36.3146L183.284 36.3159Z" fill="#EF297D"/>
<path d="M181.629 36.3066L181.616 36.3053C181.492 36.2986 181.397 36.192 181.405 36.068C181.405 36.0466 181.528 33.9346 181.423 33.2613C181.289 32.4213 182.189 31.8386 182.228 31.8133L182.537 31.8827L182.469 32.1933C182.463 32.1973 181.78 32.644 181.867 33.192C181.98 33.912 181.86 36.0053 181.855 36.0946L181.629 36.3066Z" fill="#EF297D"/>
<path d="M183.544 36.3147C183.423 36.3147 183.323 36.2187 183.319 36.0973C183.319 36.0787 183.307 35.6333 183.46 34.0253C183.596 32.5853 183.219 32.168 183.215 32.164L183.216 31.848L183.527 31.8387C183.583 31.8907 184.065 32.3934 183.908 34.068C183.76 35.6334 183.769 36.08 183.769 36.084C183.772 36.208 183.675 36.312 183.551 36.3147H183.544Z" fill="#EF297D"/>
<path d="M154.172 21.8986C154.172 22.2119 153.264 22.4639 152.144 22.4639C151.024 22.4639 150.116 22.2119 150.116 21.8986C150.116 21.5866 151.024 21.3332 152.144 21.3332C153.264 21.3332 154.172 21.5866 154.172 21.8986Z" fill="#4E4D87"/>
<path d="M153.5 21.8987C153.5 22.108 152.893 22.2773 152.144 22.2773C151.395 22.2773 150.787 22.108 150.787 21.8987C150.787 21.6907 151.395 21.5214 152.144 21.5214C152.893 21.5214 153.5 21.6907 153.5 21.8987Z" fill="#63639A"/>
<path d="M369.457 188.336L370.672 188.63C371.835 188.913 373.004 189.162 374.177 189.376C376.699 189.838 379.244 190.141 381.797 190.28C388.203 190.64 394.647 189.989 400.895 188.336L398.476 171.976H371.879L369.457 188.336Z" fill="#4E4D87"/>
<path d="M385.176 163.073L415.323 171.321L385.176 179.767L355.029 171.321L385.176 163.073Z" fill="#3F3B6C"/>
<path d="M415.323 171.322V171.835L385.176 180.28V179.767L415.323 171.322Z" fill="#63639A"/>
<path d="M355.029 171.835V171.322L385.176 179.767V180.28L355.029 171.835Z" fill="#252625"/>
<path d="M354.559 185.727C354.683 185.727 354.784 185.627 354.784 185.503V172.376C354.784 171.919 355.156 171.547 355.613 171.547H385.176C385.3 171.547 385.401 171.445 385.401 171.321C385.401 171.197 385.3 171.096 385.176 171.096H355.613C354.908 171.096 354.333 171.671 354.333 172.376V185.503C354.333 185.627 354.435 185.727 354.559 185.727Z" fill="#EF297D"/>
<path d="M353.945 181.425H355.236V179.133H353.945V181.425Z" fill="#EF297D"/>
<path d="M353.465 178.237C353.465 178.859 353.969 179.363 354.591 179.363C355.212 179.363 355.716 178.859 355.716 178.237C355.716 177.616 355.212 177.112 354.591 177.112C353.969 177.112 353.465 177.616 353.465 178.237Z" fill="#EF297D"/>
<path d="M355.236 185.735L355.3 185.726L355.452 185.447C355.449 185.439 355.208 184.588 355.455 183.515C355.737 182.292 355.188 181.351 355.164 181.311L354.856 181.232L354.777 181.54C354.781 181.55 355.257 182.374 355.016 183.415C354.741 184.607 355.009 185.535 355.02 185.575L355.236 185.735Z" fill="#EF297D"/>
<path d="M354.035 185.737C354.156 185.737 354.256 185.641 354.26 185.52C354.261 185.46 354.305 184.035 354.168 182.991C354.047 182.057 354.344 181.548 354.347 181.543L354.272 181.235L353.964 181.307C353.948 181.333 353.579 181.944 353.723 183.049C353.853 184.056 353.811 185.491 353.809 185.505C353.805 185.629 353.903 185.733 354.027 185.737H354.035Z" fill="#EF297D"/>
<path d="M355.689 185.728H355.703C355.827 185.721 355.921 185.615 355.915 185.491C355.913 185.469 355.791 183.356 355.897 182.684C356.031 181.844 355.131 181.26 355.092 181.236L354.781 181.305L354.849 181.616C354.856 181.62 355.539 182.065 355.453 182.613C355.339 183.335 355.46 185.428 355.465 185.517L355.689 185.728Z" fill="#EF297D"/>
<path d="M353.776 185.737C353.897 185.737 353.997 185.641 354 185.519C354.001 185.501 354.012 185.056 353.86 183.448C353.724 182.007 354.1 181.589 354.104 181.585L354.103 181.269L353.792 181.261C353.736 181.313 353.253 181.816 353.412 183.491C353.56 185.056 353.551 185.501 353.551 185.507C353.547 185.631 353.645 185.733 353.769 185.737H353.776Z" fill="#EF297D"/>
<path d="M383.148 171.321C383.148 171.633 384.056 171.887 385.176 171.887C386.296 171.887 387.204 171.633 387.204 171.321C387.204 171.009 386.296 170.756 385.176 170.756C384.056 170.756 383.148 171.009 383.148 171.321Z" fill="#4E4D87"/>
<path d="M383.819 171.322C383.819 171.531 384.427 171.7 385.176 171.7C385.925 171.7 386.533 171.531 386.533 171.322C386.533 171.112 385.925 170.943 385.176 170.943C384.427 170.943 383.819 171.112 383.819 171.322Z" fill="#63639A"/>
<path d="M309.739 131.46L307.111 160.015C306.013 169.753 297.777 177.115 287.976 177.115C278.176 177.115 269.939 169.753 268.843 160.015L266.215 131.46H309.739Z" fill="#3F3B6C"/>
<path d="M314.757 139.949C314.757 140.656 314.475 141.315 314.004 141.775C313.533 142.245 312.885 142.54 312.167 142.54H263.789C262.353 142.54 261.188 141.373 261.188 139.949C261.188 139.231 261.483 138.584 261.953 138.112C262.424 137.641 263.072 137.348 263.789 137.348H312.167C313.604 137.348 314.757 138.513 314.757 139.949Z" fill="#4E4D87"/>
<path d="M312.285 146.436C312.285 147.155 311.991 147.791 311.52 148.262C311.048 148.732 310.401 149.027 309.683 149.027H266.263C264.825 149.027 263.672 147.862 263.672 146.436C263.672 145.719 263.967 145.071 264.425 144.6C264.896 144.13 265.544 143.835 266.263 143.835H309.683C311.119 143.835 312.285 145 312.285 146.436Z" fill="#4E4D87"/>
<path d="M311.189 152.747C311.189 153.466 310.896 154.114 310.425 154.584C309.953 155.055 309.307 155.35 308.588 155.35H267.369C265.932 155.35 264.767 154.184 264.767 152.747C264.767 152.03 265.061 151.382 265.532 150.911C266.003 150.451 266.651 150.158 267.369 150.158H308.588C310.024 150.158 311.189 151.311 311.189 152.747Z" fill="#4E4D87"/>
<path d="M309.741 159.081C309.741 159.8 309.447 160.447 308.976 160.917C308.505 161.389 307.857 161.683 307.14 161.683H268.817C267.381 161.683 266.215 160.517 266.215 159.081C266.215 158.363 266.509 157.727 266.98 157.256C267.451 156.785 268.099 156.491 268.817 156.491H307.14C308.576 156.491 309.741 157.657 309.741 159.081Z" fill="#4E4D87"/>
<path d="M287.972 177.119C286.748 177.119 285.547 177 284.381 176.789C284.391 176.787 284.399 176.785 284.407 176.784C285.565 177.001 286.759 177.115 287.976 177.115C292.711 177.115 297.08 175.397 300.456 172.524C297.08 175.4 292.712 177.119 287.972 177.119ZM300.465 172.516C300.468 172.513 300.469 172.512 300.472 172.511C300.469 172.512 300.467 172.513 300.465 172.516Z" fill="#CFE8ED"/>
<path d="M287.976 177.115C286.759 177.115 285.565 177.001 284.407 176.784C292.001 175.313 298.088 169.392 299.639 161.683H306.849H306.847C305.971 166.012 303.668 169.781 300.472 172.511C300.469 172.512 300.468 172.513 300.465 172.516C300.461 172.519 300.459 172.521 300.456 172.524C297.08 175.397 292.711 177.115 287.976 177.115Z" fill="#313561"/>
<path d="M307.439 156.508C307.437 156.508 307.435 156.508 307.433 156.508L307.54 155.35H308.588H307.545L307.439 156.508Z" fill="#CFE8ED"/>
<path d="M307.433 156.508C307.337 156.497 307.239 156.49 307.14 156.49H300.223L300.328 155.349H307.54L307.433 156.508Z" fill="#313561"/>
<path d="M308.023 150.157H308.017L308.121 149.027H309.683H308.127L308.023 150.157ZM308.604 143.835H308.6L308.719 142.54H312.167H308.723L308.604 143.835ZM309.2 137.348H309.196L309.739 131.46H309.741L309.2 137.348Z" fill="#CFE8ED"/>
<path d="M308.017 150.157H300.805L300.909 149.027H308.121L308.017 150.157ZM308.6 143.835H301.387L301.505 142.54H308.719L308.6 143.835ZM309.196 137.348H301.984L302.525 131.46H309.739L309.196 137.348Z" fill="#313561"/>
<path d="M312.167 142.54H301.505L301.984 137.348H312.167C313.604 137.348 314.757 138.513 314.757 139.949C314.757 140.656 314.475 141.315 314.004 141.775C313.533 142.245 312.885 142.54 312.167 142.54Z" fill="#3D447B"/>
<path d="M309.683 149.027H300.909L301.387 143.835H309.683C311.119 143.835 312.285 145 312.285 146.436C312.285 147.155 311.991 147.791 311.52 148.262C311.048 148.732 310.401 149.027 309.683 149.027Z" fill="#3D447B"/>
<path d="M308.588 155.35H300.328L300.805 150.158H308.588C310.024 150.158 311.189 151.311 311.189 152.747C311.189 153.466 310.896 154.114 310.425 154.584C309.953 155.055 309.307 155.35 308.588 155.35Z" fill="#3D447B"/>
<path d="M307.14 161.683H299.639C299.748 161.135 299.836 160.577 299.899 160.012L300.223 156.491H307.14C307.239 156.491 307.337 156.497 307.433 156.508C307.435 156.508 307.437 156.508 307.439 156.508L307.437 156.521C308.696 156.667 309.685 157.699 309.74 158.972C309.74 158.973 309.74 158.973 309.74 158.975C309.74 158.979 309.74 158.983 309.74 158.987C309.74 158.988 309.74 158.989 309.74 158.991C309.74 158.995 309.74 158.999 309.74 159.003C309.741 159.004 309.741 159.005 309.741 159.007C309.741 159.011 309.741 159.015 309.741 159.017C309.741 159.02 309.741 159.023 309.741 159.024C309.741 159.027 309.741 159.031 309.741 159.033C309.741 159.036 309.741 159.039 309.741 159.041C309.741 159.044 309.741 159.047 309.741 159.049C309.741 159.052 309.741 159.056 309.741 159.06C309.741 159.061 309.741 159.063 309.741 159.065C309.741 159.071 309.741 159.076 309.741 159.081C309.741 159.8 309.447 160.447 308.976 160.917C308.505 161.389 307.857 161.683 307.14 161.683Z" fill="#3D447B"/>
<path d="M331.248 83.1975C331.248 58.2988 310.219 38.3108 284.951 40.0281C263.607 41.4801 246.304 58.7575 244.813 80.0988C244.253 88.1188 245.888 95.7068 249.168 102.336C251.436 106.919 254.78 114.553 256.401 119.403L258.381 130.039C259.84 134.404 263.925 137.348 268.528 137.348H307.429C312.031 137.348 316.117 134.404 317.576 130.039L318.864 121.475C321.124 114.712 324.004 108.188 327.069 101.749C329.747 96.1268 331.248 89.8388 331.248 83.1975Z" fill="#FCCC0F"/>
<path d="M276.136 97.3387C273.512 97.3387 271.379 99.4747 271.379 102.097C271.379 104.721 273.512 106.856 276.136 106.856H281.963L281.588 101.749C281.407 99.2761 279.323 97.3387 276.843 97.3387H276.136ZM284.203 137.407L282.08 108.461H276.136C272.627 108.461 269.772 105.607 269.772 102.097C269.772 98.5881 272.627 95.7334 276.136 95.7334H276.843C280.16 95.7334 282.948 98.3254 283.189 101.632L283.573 106.856H290.189V108.461H283.691L285.804 137.289L284.203 137.407Z" fill="#3F3B6C"/>
<path d="M293.991 106.856H299.817C302.44 106.856 304.575 104.721 304.575 102.097C304.575 99.4747 302.44 97.3387 299.817 97.3387H299.109C296.629 97.3387 294.545 99.2761 294.364 101.749L293.991 106.856ZM291.749 137.407L290.149 137.289L292.263 108.461H285.764V106.856H292.38L292.764 101.632C293.005 98.3254 295.793 95.7334 299.109 95.7334H299.817C303.325 95.7334 306.18 98.5881 306.18 102.097C306.18 105.607 303.325 108.461 299.817 108.461H293.873L291.749 137.407Z" fill="#3F3B6C"/>
<path d="M287.976 0.130568C286.317 0.130568 284.972 1.47591 284.972 3.13591V28.9986C284.972 30.6586 286.317 32.0039 287.976 32.0039C289.636 32.0039 290.981 30.6586 290.981 28.9986V3.13591C290.981 1.47591 289.636 0.130568 287.976 0.130568Z" fill="#FCCC0F"/>
<path d="M347.229 24.6733C346.056 23.5 344.153 23.5 342.98 24.6733L324.692 42.9614C323.519 44.136 323.519 46.0387 324.692 47.212C325.867 48.3854 327.769 48.3854 328.943 47.212L347.231 28.9241C348.404 27.7507 348.404 25.848 347.229 24.6733Z" fill="#FCCC0F"/>
<path d="M371.773 83.9283C371.773 82.2683 370.428 80.9229 368.768 80.9229H342.905C341.247 80.9229 339.901 82.2683 339.901 83.9283C339.901 85.5883 341.247 86.9336 342.905 86.9336H368.768C370.428 86.9336 371.773 85.5883 371.773 83.9283Z" fill="#FCCC0F"/>
<path d="M236.052 83.9283C236.052 82.2683 234.707 80.9229 233.047 80.9229H207.184C205.525 80.9229 204.18 82.2683 204.18 83.9283C204.18 85.5883 205.525 86.9336 207.184 86.9336H233.047C234.707 86.9336 236.052 85.5883 236.052 83.9283Z" fill="#FCCC0F"/>
<path d="M251.261 47.212C252.435 46.0387 252.435 44.136 251.26 42.9614L232.973 24.6733C231.8 23.5 229.897 23.5 228.723 24.6733C227.549 25.848 227.549 27.7507 228.723 28.9241L247.011 47.212C248.184 48.3854 250.087 48.3854 251.261 47.212Z" fill="#FCCC0F"/>
</svg>
